<mxfile host="www.draw.io" modified="2020-01-08T17:54:50.197Z" agent="Mozilla/5.0 (Windows NT 10.0; Win64; x64) AppleWebKit/537.36 (KHTML, like Gecko) Chrome/79.0.3945.88 Safari/537.36" etag="7dypcs2yVkmHUlGAvZXD" version="12.4.9" type="github" pages="2">
  <diagram name="Page-1" id="bd83a815-5ea8-2e97-e5ec-87c9f400f2fa">
    <mxGraphModel dx="2720" dy="1604" grid="1" gridSize="10" guides="1" tooltips="1" connect="1" arrows="1" fold="1" page="1" pageScale="1.5" pageWidth="1169" pageHeight="826" background="#ffffff" math="0" shadow="0">
      <root>
        <mxCell id="0" style=";html=1;"/>
        <mxCell id="1" style=";html=1;" parent="0"/>
        <mxCell id="1516e18e63f93b96-1" value="&lt;table border=&quot;1&quot; width=&quot;100%&quot; cellpadding=&quot;4&quot; style=&quot;width: 100% ; height: 100% ; border-collapse: collapse&quot;&gt;&lt;tbody&gt;&lt;tr style=&quot;background-color: rgb(167, 201, 66); border: 1px solid rgb(152, 191, 33);&quot;&gt;&lt;th&gt;Tasks&lt;/th&gt;&lt;th&gt;Main goal&lt;/th&gt;&lt;th&gt;Position 2&lt;/th&gt;&lt;th&gt;Position 3&lt;/th&gt;&lt;th&gt;Position 4&lt;/th&gt;&lt;th&gt;Position 5&lt;/th&gt;&lt;/tr&gt;&lt;tr style=&quot;border: 1px solid #98bf21&quot;&gt;&lt;td style=&quot;background-color: rgb(167, 201, 66); border: 1px solid rgb(152, 191, 33);&quot;&gt;Task 1&lt;/td&gt;&lt;td&gt;&lt;/td&gt;&lt;td&gt;&lt;/td&gt;&lt;td&gt;&lt;br&gt;&lt;/td&gt;&lt;td&gt;&lt;br&gt;&lt;/td&gt;&lt;td&gt;&lt;br&gt;&lt;/td&gt;&lt;/tr&gt;&lt;tr style=&quot;background-color: #eaf2d3 ; border: 1px solid #98bf21&quot;&gt;&lt;td style=&quot;background-color: rgb(167, 201, 66); border: 1px solid rgb(152, 191, 33);&quot;&gt;Task 2&lt;/td&gt;&lt;td&gt;&lt;/td&gt;&lt;td&gt;&lt;/td&gt;&lt;td&gt;&lt;br&gt;&lt;/td&gt;&lt;td&gt;&lt;br&gt;&lt;/td&gt;&lt;td&gt;&lt;br&gt;&lt;/td&gt;&lt;/tr&gt;&lt;tr style=&quot;border: 1px solid #98bf21&quot;&gt;&lt;td style=&quot;background-color: rgb(167, 201, 66); border: 1px solid rgb(152, 191, 33);&quot;&gt;Task 3&lt;/td&gt;&lt;td&gt;&lt;/td&gt;&lt;td&gt;&lt;/td&gt;&lt;td&gt;&lt;br&gt;&lt;/td&gt;&lt;td&gt;&lt;br&gt;&lt;/td&gt;&lt;td&gt;&lt;br&gt;&lt;/td&gt;&lt;/tr&gt;&lt;tr style=&quot;background-color: #eaf2d3 ; border: 1px solid #98bf21&quot;&gt;&lt;td style=&quot;background-color: rgb(167, 201, 66); border: 1px solid rgb(152, 191, 33);&quot;&gt;Task 4&lt;/td&gt;&lt;td&gt;&lt;/td&gt;&lt;td&gt;&lt;/td&gt;&lt;td&gt;&lt;br&gt;&lt;/td&gt;&lt;td&gt;&lt;br&gt;&lt;/td&gt;&lt;td&gt;&lt;br&gt;&lt;/td&gt;&lt;/tr&gt;&lt;tr style=&quot;border: 1px solid #98bf21&quot;&gt;&lt;td style=&quot;background-color: rgb(167, 201, 66); border: 1px solid rgb(152, 191, 33);&quot;&gt;Task 5&lt;br&gt;&lt;/td&gt;&lt;td&gt;&lt;br&gt;&lt;/td&gt;&lt;td&gt;&lt;br&gt;&lt;/td&gt;&lt;td&gt;&lt;br&gt;&lt;/td&gt;&lt;td&gt;&lt;br&gt;&lt;/td&gt;&lt;td&gt;&lt;br&gt;&lt;/td&gt;&lt;/tr&gt;&lt;tr style=&quot;background-color: #eaf2d3 ; border: 1px solid #98bf21&quot;&gt;&lt;td style=&quot;background-color: rgb(167, 201, 66); border: 1px solid rgb(152, 191, 33);&quot;&gt;Task 6&lt;br&gt;&lt;/td&gt;&lt;td&gt;&lt;br&gt;&lt;/td&gt;&lt;td&gt;&lt;br&gt;&lt;/td&gt;&lt;td&gt;&lt;br&gt;&lt;/td&gt;&lt;td&gt;&lt;br&gt;&lt;/td&gt;&lt;td&gt;&lt;br&gt;&lt;/td&gt;&lt;/tr&gt;&lt;tr style=&quot;border: 1px solid #98bf21&quot;&gt;&lt;td style=&quot;background-color: rgb(167, 201, 66); border: 1px solid rgb(152, 191, 33);&quot;&gt;Task 7&lt;br&gt;&lt;/td&gt;&lt;td&gt;&lt;br&gt;&lt;/td&gt;&lt;td&gt;&lt;br&gt;&lt;/td&gt;&lt;td&gt;&lt;br&gt;&lt;/td&gt;&lt;td&gt;&lt;br&gt;&lt;/td&gt;&lt;td&gt;&lt;br&gt;&lt;/td&gt;&lt;/tr&gt;&lt;tr style=&quot;background-color: #eaf2d3 ; border: 1px solid #98bf21&quot;&gt;&lt;td style=&quot;background-color: rgb(167, 201, 66); border: 1px solid rgb(152, 191, 33);&quot;&gt;Task 8&lt;br&gt;&lt;/td&gt;&lt;td&gt;&lt;br&gt;&lt;/td&gt;&lt;td&gt;&lt;br&gt;&lt;/td&gt;&lt;td&gt;&lt;br&gt;&lt;/td&gt;&lt;td&gt;&lt;br&gt;&lt;/td&gt;&lt;td&gt;&lt;br&gt;&lt;/td&gt;&lt;/tr&gt;&lt;tr style=&quot;border: 1px solid #98bf21&quot;&gt;&lt;td style=&quot;background-color: rgb(167, 201, 66); border: 1px solid rgb(152, 191, 33);&quot;&gt;Task 9&lt;br&gt;&lt;/td&gt;&lt;td&gt;&lt;br&gt;&lt;/td&gt;&lt;td&gt;&lt;br&gt;&lt;/td&gt;&lt;td&gt;&lt;br&gt;&lt;/td&gt;&lt;td&gt;&lt;br&gt;&lt;/td&gt;&lt;td&gt;&lt;br&gt;&lt;/td&gt;&lt;/tr&gt;&lt;tr style=&quot;background-color: #eaf2d3 ; border: 1px solid #98bf21&quot;&gt;&lt;td style=&quot;background-color: rgb(167, 201, 66); border: 1px solid rgb(152, 191, 33);&quot;&gt;Task 10&lt;br&gt;&lt;/td&gt;&lt;td&gt;&lt;br&gt;&lt;/td&gt;&lt;td&gt;&lt;br&gt;&lt;/td&gt;&lt;td&gt;&lt;br&gt;&lt;/td&gt;&lt;td&gt;&lt;br&gt;&lt;/td&gt;&lt;td&gt;&lt;br&gt;&lt;/td&gt;&lt;/tr&gt;&lt;/tbody&gt;&lt;/table&gt;" style="text;html=1;strokeColor=#c0c0c0;fillColor=#ffffff;overflow=fill;rounded=0;shadow=1;fontSize=14;fontColor=#000000;align=center;verticalAlign=middle;" parent="1" vertex="1">
          <mxGeometry x="160" y="160" width="1090" height="660" as="geometry"/>
        </mxCell>
        <mxCell id="1516e18e63f93b96-3" value="Title" style="text;strokeColor=none;fillColor=none;html=1;fontSize=24;fontStyle=1;verticalAlign=middle;align=center;rounded=0;shadow=1;" parent="1" vertex="1">
          <mxGeometry x="300" y="70" width="780" height="40" as="geometry"/>
        </mxCell>
        <mxCell id="1516e18e63f93b96-31" value="" style="ellipse;whiteSpace=wrap;html=1;rounded=0;shadow=0;strokeWidth=3;fontSize=14" parent="1" vertex="1">
          <mxGeometry x="946" y="595" width="30" height="30" as="geometry"/>
        </mxCell>
        <mxCell id="1516e18e63f93b96-32" value="" style="ellipse;whiteSpace=wrap;html=1;rounded=0;shadow=0;strokeWidth=3;fontSize=14" parent="1" vertex="1">
          <mxGeometry x="570" y="475" width="30" height="30" as="geometry"/>
        </mxCell>
        <mxCell id="1516e18e63f93b96-33" value="" style="ellipse;whiteSpace=wrap;html=1;rounded=0;shadow=0;strokeWidth=3;fontSize=14;fillColor=#000000;" parent="1" vertex="1">
          <mxGeometry x="1140" y="417" width="30" height="30" as="geometry"/>
        </mxCell>
        <mxCell id="1516e18e63f93b96-34" value="" style="ellipse;whiteSpace=wrap;html=1;rounded=0;shadow=0;strokeWidth=3;fontSize=14;fillColor=#000000;" parent="1" vertex="1">
          <mxGeometry x="946" y="655" width="30" height="30" as="geometry"/>
        </mxCell>
        <mxCell id="1516e18e63f93b96-35" value="" style="triangle;whiteSpace=wrap;html=1;rounded=0;shadow=0;strokeWidth=3;fontSize=14;direction=north;" parent="1" vertex="1">
          <mxGeometry x="570" y="775" width="30" height="30" as="geometry"/>
        </mxCell>
        <mxCell id="1516e18e63f93b96-36" value="" style="triangle;whiteSpace=wrap;html=1;rounded=0;shadow=0;strokeWidth=3;fontSize=14;direction=north;" parent="1" vertex="1">
          <mxGeometry x="760" y="355" width="30" height="30" as="geometry"/>
        </mxCell>
        <mxCell id="1516e18e63f93b96-37" value="" style="triangle;whiteSpace=wrap;html=1;rounded=0;shadow=0;strokeWidth=3;fillColor=#000000;fontSize=14;direction=north;" parent="1" vertex="1">
          <mxGeometry x="1138" y="775" width="30" height="30" as="geometry"/>
        </mxCell>
        <mxCell id="1516e18e63f93b96-38" value="" style="triangle;whiteSpace=wrap;html=1;rounded=0;shadow=0;strokeWidth=3;fillColor=#000000;fontSize=14;direction=north;" parent="1" vertex="1">
          <mxGeometry x="760" y="770" width="30" height="30" as="geometry"/>
        </mxCell>
        <mxCell id="1516e18e63f93b96-39" value="" style="triangle;whiteSpace=wrap;html=1;rounded=0;shadow=0;strokeWidth=3;fillColor=#000000;fontSize=14;direction=north;" parent="1" vertex="1">
          <mxGeometry x="380" y="715" width="30" height="30" as="geometry"/>
        </mxCell>
        <mxCell id="1516e18e63f93b96-40" value="" style="whiteSpace=wrap;html=1;rounded=0;shadow=0;strokeWidth=3;fontSize=14" parent="1" vertex="1">
          <mxGeometry x="380" y="234" width="30" height="30" as="geometry"/>
        </mxCell>
        <mxCell id="1516e18e63f93b96-41" value="" style="whiteSpace=wrap;html=1;rounded=0;shadow=0;strokeWidth=3;fontSize=14" parent="1" vertex="1">
          <mxGeometry x="570" y="234" width="30" height="30" as="geometry"/>
        </mxCell>
        <mxCell id="1516e18e63f93b96-42" value="" style="whiteSpace=wrap;html=1;rounded=0;shadow=0;strokeWidth=3;fontSize=14" parent="1" vertex="1">
          <mxGeometry x="946" y="294" width="30" height="30" as="geometry"/>
        </mxCell>
        <mxCell id="1516e18e63f93b96-43" value="" style="whiteSpace=wrap;html=1;rounded=0;shadow=0;strokeWidth=3;fillColor=#ffffff;fontSize=14" parent="1" vertex="1">
          <mxGeometry x="1140" y="534" width="30" height="30" as="geometry"/>
        </mxCell>
        <mxCell id="1516e18e63f93b96-44" value="" style="whiteSpace=wrap;html=1;rounded=0;shadow=0;strokeWidth=3;fillColor=#000000;fontSize=14" parent="1" vertex="1">
          <mxGeometry x="380" y="595" width="30" height="30" as="geometry"/>
        </mxCell>
        <mxCell id="1516e18e63f93b96-45" value="" style="whiteSpace=wrap;html=1;rounded=0;shadow=0;strokeWidth=3;fillColor=#000000;fontSize=14" parent="1" vertex="1">
          <mxGeometry x="946" y="417" width="30" height="30" as="geometry"/>
        </mxCell>
        <mxCell id="1516e18e63f93b96-46" value="" style="whiteSpace=wrap;html=1;rounded=0;shadow=0;strokeWidth=3;fillColor=#000000;fontSize=14" parent="1" vertex="1">
          <mxGeometry x="1140" y="294" width="30" height="30" as="geometry"/>
        </mxCell>
        <mxCell id="1516e18e63f93b96-47" value="" style="rhombus;whiteSpace=wrap;html=1;rounded=0;shadow=0;strokeWidth=3;fontSize=14" parent="1" vertex="1">
          <mxGeometry x="760" y="534" width="30" height="30" as="geometry"/>
        </mxCell>
        <mxCell id="1516e18e63f93b96-48" value="" style="rhombus;whiteSpace=wrap;html=1;rounded=0;shadow=0;strokeWidth=3;fontSize=14" parent="1" vertex="1">
          <mxGeometry x="380" y="294" width="30" height="30" as="geometry"/>
        </mxCell>
        <mxCell id="1516e18e63f93b96-49" value="" style="rhombus;whiteSpace=wrap;html=1;rounded=0;shadow=0;strokeWidth=3;fontSize=14" parent="1" vertex="1">
          <mxGeometry x="946" y="715" width="30" height="30" as="geometry"/>
        </mxCell>
        <mxCell id="1516e18e63f93b96-50" value="" style="rhombus;whiteSpace=wrap;html=1;rounded=0;shadow=0;strokeWidth=3;fillColor=#000000;fontSize=14" parent="1" vertex="1">
          <mxGeometry x="1138" y="655" width="30" height="30" as="geometry"/>
        </mxCell>
        <mxCell id="1516e18e63f93b96-51" value="" style="rhombus;whiteSpace=wrap;html=1;rounded=0;shadow=0;strokeWidth=3;fillColor=#000000;fontSize=14" parent="1" vertex="1">
          <mxGeometry x="570" y="355" width="30" height="30" as="geometry"/>
        </mxCell>
        <mxCell id="1516e18e63f93b96-52" value="" style="rhombus;whiteSpace=wrap;html=1;rounded=0;shadow=0;strokeWidth=3;fillColor=#000000;fontSize=14" parent="1" vertex="1">
          <mxGeometry x="760" y="234" width="30" height="30" as="geometry"/>
        </mxCell>
        <mxCell id="1516e18e63f93b96-53" value="" style="rhombus;whiteSpace=wrap;html=1;rounded=0;shadow=0;strokeWidth=3;fillColor=#000000;fontSize=14" parent="1" vertex="1">
          <mxGeometry x="760" y="715" width="30" height="30" as="geometry"/>
        </mxCell>
      </root>
    </mxGraphModel>
  </diagram>
  <diagram id="ZJhlFJUBSGtNI9eiGDhY" name="Page-2">
    <mxGraphModel dx="777" dy="458" grid="1" gridSize="10" guides="1" tooltips="1" connect="1" arrows="1" fold="1" page="1" pageScale="1" pageWidth="850" pageHeight="1100" math="0" shadow="0">
      <root>
        <mxCell id="85VBYpExMVY2cZqk5exd-0"/>
        <mxCell id="85VBYpExMVY2cZqk5exd-1" parent="85VBYpExMVY2cZqk5exd-0"/>
        <mxCell id="85VBYpExMVY2cZqk5exd-2" value="The Goal" style="rounded=0;whiteSpace=wrap;html=1;fontColor=#000000;align=center;fontSize=10;" vertex="1" parent="85VBYpExMVY2cZqk5exd-1">
          <mxGeometry x="158.95" y="375" width="680.65" height="15" as="geometry"/>
        </mxCell>
        <mxCell id="85VBYpExMVY2cZqk5exd-4" value="10 year" style="rounded=0;whiteSpace=wrap;html=1;fontColor=#000000;align=center;fontSize=10;" vertex="1" parent="85VBYpExMVY2cZqk5exd-1">
          <mxGeometry x="159.35" y="390" width="390" height="15" as="geometry"/>
        </mxCell>
        <mxCell id="85VBYpExMVY2cZqk5exd-5" value="5 year" style="rounded=0;whiteSpace=wrap;html=1;fontColor=#000000;align=center;fontSize=10;" vertex="1" parent="85VBYpExMVY2cZqk5exd-1">
          <mxGeometry x="159.35" y="405" width="320" height="15" as="geometry"/>
        </mxCell>
        <mxCell id="85VBYpExMVY2cZqk5exd-9" value="1 year" style="rounded=0;whiteSpace=wrap;html=1;fontColor=#000000;align=center;fontSize=10;" vertex="1" parent="85VBYpExMVY2cZqk5exd-1">
          <mxGeometry x="159.35" y="420.15" width="240" height="15" as="geometry"/>
        </mxCell>
        <mxCell id="85VBYpExMVY2cZqk5exd-36" value="6 Month" style="rounded=0;whiteSpace=wrap;html=1;fontColor=#000000;align=center;fontSize=10;" vertex="1" parent="85VBYpExMVY2cZqk5exd-1">
          <mxGeometry x="159.35" y="435.15" width="160" height="15" as="geometry"/>
        </mxCell>
        <mxCell id="85VBYpExMVY2cZqk5exd-38" value="3 Month" style="rounded=0;whiteSpace=wrap;html=1;fontColor=#000000;align=center;fontSize=10;" vertex="1" parent="85VBYpExMVY2cZqk5exd-1">
          <mxGeometry x="159.35" y="450.15" width="100" height="15" as="geometry"/>
        </mxCell>
        <mxCell id="85VBYpExMVY2cZqk5exd-40" value="30 + 1" style="rounded=0;whiteSpace=wrap;html=1;fontColor=#000000;align=center;fontSize=10;" vertex="1" parent="85VBYpExMVY2cZqk5exd-1">
          <mxGeometry x="159.35" y="465" width="180" height="15" as="geometry"/>
        </mxCell>
        <mxCell id="85VBYpExMVY2cZqk5exd-47" value="14 + 1" style="rounded=0;whiteSpace=wrap;html=1;fontColor=#000000;align=center;fontSize=10;" vertex="1" parent="85VBYpExMVY2cZqk5exd-1">
          <mxGeometry x="159.35" y="480" width="90" height="15" as="geometry"/>
        </mxCell>
        <mxCell id="85VBYpExMVY2cZqk5exd-50" value="14 + 1" style="rounded=0;whiteSpace=wrap;html=1;fontColor=#000000;align=center;fontSize=10;" vertex="1" parent="85VBYpExMVY2cZqk5exd-1">
          <mxGeometry x="249.35" y="480" width="90" height="15" as="geometry"/>
        </mxCell>
        <mxCell id="85VBYpExMVY2cZqk5exd-55" value="5+2" style="rounded=0;whiteSpace=wrap;html=1;fontColor=#000000;align=center;fontSize=10;" vertex="1" parent="85VBYpExMVY2cZqk5exd-1">
          <mxGeometry x="159.35" y="495" width="40" height="15" as="geometry"/>
        </mxCell>
        <mxCell id="85VBYpExMVY2cZqk5exd-62" value="5+2" style="rounded=0;whiteSpace=wrap;html=1;fontColor=#000000;align=center;fontSize=10;" vertex="1" parent="85VBYpExMVY2cZqk5exd-1">
          <mxGeometry x="199.35" y="495" width="50" height="15" as="geometry"/>
        </mxCell>
        <mxCell id="85VBYpExMVY2cZqk5exd-63" value="5+2" style="rounded=0;whiteSpace=wrap;html=1;fontColor=#000000;align=center;fontSize=10;" vertex="1" parent="85VBYpExMVY2cZqk5exd-1">
          <mxGeometry x="249.35" y="495" width="40" height="15" as="geometry"/>
        </mxCell>
        <mxCell id="85VBYpExMVY2cZqk5exd-64" value="5+2" style="rounded=0;whiteSpace=wrap;html=1;fontColor=#000000;align=center;fontSize=10;" vertex="1" parent="85VBYpExMVY2cZqk5exd-1">
          <mxGeometry x="289.35" y="495" width="50" height="15" as="geometry"/>
        </mxCell>
        <mxCell id="85VBYpExMVY2cZqk5exd-106" value="5 days" style="rounded=0;whiteSpace=wrap;html=1;fontColor=#000000;align=center;fontSize=10;" vertex="1" parent="85VBYpExMVY2cZqk5exd-1">
          <mxGeometry x="158.95000000000002" y="520.75" width="278.1" height="17" as="geometry"/>
        </mxCell>
        <mxCell id="85VBYpExMVY2cZqk5exd-231" value="2 days" style="rounded=0;whiteSpace=wrap;html=1;fontSize=10;fontColor=#000000;align=center;" vertex="1" parent="85VBYpExMVY2cZqk5exd-1">
          <mxGeometry x="680.7" y="465.22999999999996" width="68" height="15" as="geometry"/>
        </mxCell>
        <mxCell id="85VBYpExMVY2cZqk5exd-233" value="15 days" style="rounded=0;whiteSpace=wrap;html=1;fontSize=10;fontColor=#000000;align=center;" vertex="1" parent="85VBYpExMVY2cZqk5exd-1">
          <mxGeometry x="680.35" y="435.08" width="68" height="15" as="geometry"/>
        </mxCell>
        <mxCell id="85VBYpExMVY2cZqk5exd-234" value="1 Mo" style="rounded=0;whiteSpace=wrap;html=1;fontSize=10;fontColor=#000000;align=center;" vertex="1" parent="85VBYpExMVY2cZqk5exd-1">
          <mxGeometry x="680" y="420.08" width="68" height="15" as="geometry"/>
        </mxCell>
        <mxCell id="85VBYpExMVY2cZqk5exd-235" value="2 Mo" style="rounded=0;whiteSpace=wrap;html=1;fontSize=10;fontColor=#000000;align=center;" vertex="1" parent="85VBYpExMVY2cZqk5exd-1">
          <mxGeometry x="680.35" y="405.08" width="68" height="15" as="geometry"/>
        </mxCell>
        <mxCell id="85VBYpExMVY2cZqk5exd-248" value="Re-Bound" style="rounded=0;whiteSpace=wrap;html=1;fontSize=10;fontColor=#000000;align=center;" vertex="1" parent="85VBYpExMVY2cZqk5exd-1">
          <mxGeometry x="680.35" y="390" width="159.65" height="15" as="geometry"/>
        </mxCell>
        <mxCell id="85VBYpExMVY2cZqk5exd-249" value="" style="shape=flexArrow;endArrow=classic;html=1;fontSize=15;fontColor=#000000;width=5.714285714285714;endWidth=12;endSize=4.428571428571429;" edge="1" parent="85VBYpExMVY2cZqk5exd-1">
          <mxGeometry width="50" height="50" relative="1" as="geometry">
            <mxPoint x="649" y="480" as="sourcePoint"/>
            <mxPoint x="649.4200000000001" y="395" as="targetPoint"/>
          </mxGeometry>
        </mxCell>
        <mxCell id="85VBYpExMVY2cZqk5exd-270" value="24 hrs" style="rounded=0;whiteSpace=wrap;html=1;fontColor=#000000;align=center;fontSize=10;" vertex="1" parent="85VBYpExMVY2cZqk5exd-1">
          <mxGeometry x="161.65" y="580.75" width="479.3" height="12" as="geometry"/>
        </mxCell>
        <mxCell id="85VBYpExMVY2cZqk5exd-277" value="10 -12" style="rounded=0;whiteSpace=wrap;html=1;fontColor=#000000;align=center;fontSize=10;" vertex="1" parent="85VBYpExMVY2cZqk5exd-1">
          <mxGeometry x="480.95000000000005" y="606.13" width="40" height="13" as="geometry"/>
        </mxCell>
        <mxCell id="85VBYpExMVY2cZqk5exd-278" value="0-2" style="rounded=0;whiteSpace=wrap;html=1;fontColor=#000000;align=center;fontSize=10;" vertex="1" parent="85VBYpExMVY2cZqk5exd-1">
          <mxGeometry x="520.9499999999999" y="606.13" width="40" height="13" as="geometry"/>
        </mxCell>
        <mxCell id="85VBYpExMVY2cZqk5exd-300" value="&lt;span style=&quot;font-size: 10px; line-height: 107%; font-family: calibri, sans-serif;&quot;&gt;Kalai&lt;/span&gt;" style="rounded=0;whiteSpace=wrap;html=1;fontSize=10;fontColor=#000000;align=center;" vertex="1" parent="85VBYpExMVY2cZqk5exd-1">
          <mxGeometry x="161.95000000000002" y="593.13" width="79" height="13" as="geometry"/>
        </mxCell>
        <mxCell id="85VBYpExMVY2cZqk5exd-301" value="&lt;span style=&quot;font-size: 10px; line-height: 107%; font-family: calibri, sans-serif;&quot;&gt;Narpakaal&lt;/span&gt;" style="rounded=0;whiteSpace=wrap;html=1;fontSize=10;fontColor=#000000;align=center;" vertex="1" parent="85VBYpExMVY2cZqk5exd-1">
          <mxGeometry x="241.60000000000002" y="593.13" width="80.35" height="13" as="geometry"/>
        </mxCell>
        <mxCell id="85VBYpExMVY2cZqk5exd-302" value="&lt;span style=&quot;font-size: 10px; line-height: 107%; font-family: calibri, sans-serif;&quot;&gt;Yerpadu&lt;/span&gt;" style="rounded=0;whiteSpace=wrap;html=1;fontSize=10;fontColor=#000000;align=center;" vertex="1" parent="85VBYpExMVY2cZqk5exd-1">
          <mxGeometry x="322.95000000000005" y="593.13" width="79" height="13" as="geometry"/>
        </mxCell>
        <mxCell id="85VBYpExMVY2cZqk5exd-303" value="&lt;span style=&quot;font-size: 10px; line-height: 107%; font-family: calibri, sans-serif;&quot;&gt;Malai&lt;/span&gt;" style="rounded=0;whiteSpace=wrap;html=1;fontSize=10;fontColor=#000000;align=center;" vertex="1" parent="85VBYpExMVY2cZqk5exd-1">
          <mxGeometry x="402.25000000000006" y="593.13" width="79" height="13" as="geometry"/>
        </mxCell>
        <mxCell id="85VBYpExMVY2cZqk5exd-304" value="&lt;span style=&quot;font-size: 10px; line-height: 107%; font-family: calibri, sans-serif;&quot;&gt;Yammam&lt;/span&gt;" style="rounded=0;whiteSpace=wrap;html=1;fontSize=10;fontColor=#000000;align=center;" vertex="1" parent="85VBYpExMVY2cZqk5exd-1">
          <mxGeometry x="481.25000000000006" y="593.13" width="79" height="13" as="geometry"/>
        </mxCell>
        <mxCell id="85VBYpExMVY2cZqk5exd-305" value="&lt;span style=&quot;font-size: 10px; line-height: 107%; font-family: calibri, sans-serif;&quot;&gt;Vaikarai&lt;/span&gt;" style="rounded=0;whiteSpace=wrap;html=1;fontSize=10;fontColor=#000000;align=center;" vertex="1" parent="85VBYpExMVY2cZqk5exd-1">
          <mxGeometry x="560.9499999999999" y="593.13" width="80" height="13" as="geometry"/>
        </mxCell>
        <mxCell id="85VBYpExMVY2cZqk5exd-310" value="2-4" style="rounded=0;whiteSpace=wrap;html=1;fontColor=#000000;align=center;fontSize=10;" vertex="1" parent="85VBYpExMVY2cZqk5exd-1">
          <mxGeometry x="560.9499999999999" y="606.13" width="40" height="13" as="geometry"/>
        </mxCell>
        <mxCell id="85VBYpExMVY2cZqk5exd-311" value="4-6" style="rounded=0;whiteSpace=wrap;html=1;fontColor=#000000;align=center;fontSize=10;" vertex="1" parent="85VBYpExMVY2cZqk5exd-1">
          <mxGeometry x="600.9499999999999" y="606.13" width="40" height="13" as="geometry"/>
        </mxCell>
        <mxCell id="85VBYpExMVY2cZqk5exd-312" value="6-8" style="rounded=0;whiteSpace=wrap;html=1;fontColor=#000000;align=center;fontSize=10;" vertex="1" parent="85VBYpExMVY2cZqk5exd-1">
          <mxGeometry x="400.95000000000005" y="606.13" width="40" height="13" as="geometry"/>
        </mxCell>
        <mxCell id="85VBYpExMVY2cZqk5exd-313" value="8-10" style="rounded=0;whiteSpace=wrap;html=1;fontColor=#000000;align=center;fontSize=10;" vertex="1" parent="85VBYpExMVY2cZqk5exd-1">
          <mxGeometry x="440.95000000000005" y="606.13" width="40" height="13" as="geometry"/>
        </mxCell>
        <mxCell id="85VBYpExMVY2cZqk5exd-320" value="&lt;span style=&quot;font-size: 11px; line-height: 107%; font-family: calibri, sans-serif;&quot;&gt;Sleep&lt;/span&gt;" style="rounded=0;whiteSpace=wrap;html=1;fontSize=11;fontColor=#000000;align=center;" vertex="1" parent="85VBYpExMVY2cZqk5exd-1">
          <mxGeometry x="481.25000000000006" y="619.13" width="119.7" height="14" as="geometry"/>
        </mxCell>
        <mxCell id="85VBYpExMVY2cZqk5exd-321" value="10 -12" style="rounded=0;whiteSpace=wrap;html=1;fontColor=#000000;align=center;fontSize=10;" vertex="1" parent="85VBYpExMVY2cZqk5exd-1">
          <mxGeometry x="241.95000000000002" y="606.13" width="40" height="13" as="geometry"/>
        </mxCell>
        <mxCell id="85VBYpExMVY2cZqk5exd-322" value="0-2" style="rounded=0;whiteSpace=wrap;html=1;fontColor=#000000;align=center;fontSize=10;" vertex="1" parent="85VBYpExMVY2cZqk5exd-1">
          <mxGeometry x="281.95000000000005" y="606.13" width="40" height="13" as="geometry"/>
        </mxCell>
        <mxCell id="85VBYpExMVY2cZqk5exd-323" value="2-4" style="rounded=0;whiteSpace=wrap;html=1;fontColor=#000000;align=center;fontSize=10;" vertex="1" parent="85VBYpExMVY2cZqk5exd-1">
          <mxGeometry x="321.95000000000005" y="606.13" width="40" height="13" as="geometry"/>
        </mxCell>
        <mxCell id="85VBYpExMVY2cZqk5exd-324" value="4-6" style="rounded=0;whiteSpace=wrap;html=1;fontColor=#000000;align=center;fontSize=10;" vertex="1" parent="85VBYpExMVY2cZqk5exd-1">
          <mxGeometry x="361.95000000000005" y="606.13" width="40" height="13" as="geometry"/>
        </mxCell>
        <mxCell id="85VBYpExMVY2cZqk5exd-325" value="6-8" style="rounded=0;whiteSpace=wrap;html=1;fontColor=#000000;align=center;fontSize=10;" vertex="1" parent="85VBYpExMVY2cZqk5exd-1">
          <mxGeometry x="161.95000000000002" y="606.13" width="40" height="13" as="geometry"/>
        </mxCell>
        <mxCell id="85VBYpExMVY2cZqk5exd-326" value="8-10" style="rounded=0;whiteSpace=wrap;html=1;fontColor=#000000;align=center;fontSize=10;" vertex="1" parent="85VBYpExMVY2cZqk5exd-1">
          <mxGeometry x="201.95000000000002" y="606.13" width="40" height="13" as="geometry"/>
        </mxCell>
        <mxCell id="85VBYpExMVY2cZqk5exd-330" value="&lt;span style=&quot;font-size: 11px; line-height: 107%; font-family: calibri, sans-serif;&quot;&gt;Train&lt;/span&gt;" style="rounded=0;whiteSpace=wrap;html=1;fontSize=11;fontColor=#000000;align=center;" vertex="1" parent="85VBYpExMVY2cZqk5exd-1">
          <mxGeometry x="600.9499999999999" y="619.13" width="40" height="14" as="geometry"/>
        </mxCell>
        <mxCell id="85VBYpExMVY2cZqk5exd-331" value="&lt;span style=&quot;font-size: 11px; line-height: 107%; font-family: calibri, sans-serif;&quot;&gt;H&lt;/span&gt;" style="rounded=0;whiteSpace=wrap;html=1;fontSize=11;fontColor=#000000;align=center;" vertex="1" parent="85VBYpExMVY2cZqk5exd-1">
          <mxGeometry x="161.95" y="619.13" width="19.65" height="14" as="geometry"/>
        </mxCell>
        <mxCell id="85VBYpExMVY2cZqk5exd-332" value="&lt;span style=&quot;font-size: 11px; line-height: 107%; font-family: calibri, sans-serif;&quot;&gt;Work&lt;/span&gt;" style="rounded=0;whiteSpace=wrap;html=1;fontSize=11;fontColor=#000000;align=center;" vertex="1" parent="85VBYpExMVY2cZqk5exd-1">
          <mxGeometry x="210.95" y="619.13" width="180.65" height="14" as="geometry"/>
        </mxCell>
        <mxCell id="85VBYpExMVY2cZqk5exd-333" value="&lt;span style=&quot;font-size: 11px; line-height: 107%; font-family: calibri, sans-serif;&quot;&gt;Per&lt;/span&gt;" style="rounded=0;whiteSpace=wrap;html=1;fontSize=11;fontColor=#000000;align=center;" vertex="1" parent="85VBYpExMVY2cZqk5exd-1">
          <mxGeometry x="391.6" y="619.13" width="40" height="14" as="geometry"/>
        </mxCell>
        <mxCell id="85VBYpExMVY2cZqk5exd-354" value="S Day" style="rounded=0;whiteSpace=wrap;html=1;fontColor=#000000;align=center;fontSize=10;" vertex="1" parent="85VBYpExMVY2cZqk5exd-1">
          <mxGeometry x="553.5" y="520.75" width="86.5" height="17" as="geometry"/>
        </mxCell>
        <mxCell id="85VBYpExMVY2cZqk5exd-355" value="4" style="rounded=0;whiteSpace=wrap;html=1;fontColor=#000000;align=center;fontSize=10;" vertex="1" parent="85VBYpExMVY2cZqk5exd-1">
          <mxGeometry x="623.45" y="538.75" width="16.55" height="17" as="geometry"/>
        </mxCell>
        <mxCell id="85VBYpExMVY2cZqk5exd-356" value="4" style="rounded=0;whiteSpace=wrap;html=1;fontColor=#000000;align=center;fontSize=10;" vertex="1" parent="85VBYpExMVY2cZqk5exd-1">
          <mxGeometry x="623.1" y="555.75" width="16.9" height="17" as="geometry"/>
        </mxCell>
        <mxCell id="85VBYpExMVY2cZqk5exd-357" value="ST Day" style="rounded=0;whiteSpace=wrap;html=1;fontColor=#000000;align=center;fontSize=10;" vertex="1" parent="85VBYpExMVY2cZqk5exd-1">
          <mxGeometry x="463.50000000000006" y="520.75" width="90" height="17" as="geometry"/>
        </mxCell>
        <mxCell id="85VBYpExMVY2cZqk5exd-358" value="&lt;span style=&quot;font-size: 10px; line-height: 107%; font-family: calibri, sans-serif;&quot;&gt;Yammam&lt;/span&gt;" style="rounded=0;whiteSpace=wrap;html=1;fontSize=10;fontColor=#000000;align=left;" vertex="1" parent="85VBYpExMVY2cZqk5exd-1">
          <mxGeometry x="553.5000000000001" y="538.75" width="70" height="17" as="geometry"/>
        </mxCell>
        <mxCell id="85VBYpExMVY2cZqk5exd-359" value="&lt;span style=&quot;font-size: 10px; line-height: 107%; font-family: calibri, sans-serif;&quot;&gt;Vaikarai&lt;/span&gt;" style="rounded=0;whiteSpace=wrap;html=1;fontSize=10;fontColor=#000000;align=left;" vertex="1" parent="85VBYpExMVY2cZqk5exd-1">
          <mxGeometry x="553.5000000000001" y="555.75" width="70" height="17" as="geometry"/>
        </mxCell>
        <mxCell id="85VBYpExMVY2cZqk5exd-360" value="4" style="rounded=0;whiteSpace=wrap;html=1;fontColor=#000000;align=center;fontSize=10;" vertex="1" parent="85VBYpExMVY2cZqk5exd-1">
          <mxGeometry x="533.85" y="538.75" width="20" height="17" as="geometry"/>
        </mxCell>
        <mxCell id="85VBYpExMVY2cZqk5exd-361" value="4" style="rounded=0;whiteSpace=wrap;html=1;fontColor=#000000;align=center;fontSize=10;" vertex="1" parent="85VBYpExMVY2cZqk5exd-1">
          <mxGeometry x="533.5000000000001" y="555.75" width="20" height="17" as="geometry"/>
        </mxCell>
        <mxCell id="85VBYpExMVY2cZqk5exd-362" value="&lt;span style=&quot;font-size: 10px; line-height: 107%; font-family: calibri, sans-serif;&quot;&gt;Yammam&lt;/span&gt;" style="rounded=0;whiteSpace=wrap;html=1;fontSize=10;fontColor=#000000;align=left;" vertex="1" parent="85VBYpExMVY2cZqk5exd-1">
          <mxGeometry x="463.90000000000003" y="538.75" width="70" height="17" as="geometry"/>
        </mxCell>
        <mxCell id="85VBYpExMVY2cZqk5exd-363" value="&lt;span style=&quot;font-size: 10px; line-height: 107%; font-family: calibri, sans-serif;&quot;&gt;Vaikarai&lt;/span&gt;" style="rounded=0;whiteSpace=wrap;html=1;fontSize=10;fontColor=#000000;align=left;" vertex="1" parent="85VBYpExMVY2cZqk5exd-1">
          <mxGeometry x="463.90000000000003" y="555.75" width="70" height="17" as="geometry"/>
        </mxCell>
        <mxCell id="85VBYpExMVY2cZqk5exd-364" value="&lt;span style=&quot;font-size: 10px; line-height: 107%; font-family: calibri, sans-serif;&quot;&gt;Sleep&lt;/span&gt;" style="rounded=0;whiteSpace=wrap;html=1;fontSize=10;fontColor=#000000;align=left;horizontal=0;" vertex="1" parent="85VBYpExMVY2cZqk5exd-1">
          <mxGeometry x="447.8" y="538.75" width="16" height="34" as="geometry"/>
        </mxCell>
        <mxCell id="85VBYpExMVY2cZqk5exd-369" value="&lt;font style=&quot;font-size: 9px;&quot;&gt;ST Day&lt;/font&gt;" style="rounded=0;whiteSpace=wrap;html=1;fontColor=#000000;align=center;fontSize=9;" vertex="1" parent="85VBYpExMVY2cZqk5exd-1">
          <mxGeometry x="161.64999999999998" y="652.76" width="479.3" height="12" as="geometry"/>
        </mxCell>
        <mxCell id="85VBYpExMVY2cZqk5exd-370" value="10 -12" style="rounded=0;whiteSpace=wrap;html=1;fontColor=#000000;align=center;fontSize=9;" vertex="1" parent="85VBYpExMVY2cZqk5exd-1">
          <mxGeometry x="481.3000000000001" y="678.76" width="40" height="16" as="geometry"/>
        </mxCell>
        <mxCell id="85VBYpExMVY2cZqk5exd-371" value="0-2" style="rounded=0;whiteSpace=wrap;html=1;fontColor=#000000;align=center;fontSize=9;" vertex="1" parent="85VBYpExMVY2cZqk5exd-1">
          <mxGeometry x="521.3000000000001" y="678.76" width="40" height="16" as="geometry"/>
        </mxCell>
        <mxCell id="85VBYpExMVY2cZqk5exd-372" value="&lt;span style=&quot;font-size: 10px; line-height: 107%; font-family: calibri, sans-serif;&quot;&gt;Kalai&lt;/span&gt;" style="rounded=0;whiteSpace=wrap;html=1;fontSize=10;fontColor=#000000;align=center;" vertex="1" parent="85VBYpExMVY2cZqk5exd-1">
          <mxGeometry x="162.29999999999998" y="664.76" width="79" height="14" as="geometry"/>
        </mxCell>
        <mxCell id="85VBYpExMVY2cZqk5exd-373" value="&lt;span style=&quot;font-size: 10px; line-height: 107%; font-family: calibri, sans-serif;&quot;&gt;Narpakaal&lt;/span&gt;" style="rounded=0;whiteSpace=wrap;html=1;fontSize=10;fontColor=#000000;align=center;" vertex="1" parent="85VBYpExMVY2cZqk5exd-1">
          <mxGeometry x="241.95" y="664.76" width="80.35" height="14" as="geometry"/>
        </mxCell>
        <mxCell id="85VBYpExMVY2cZqk5exd-374" value="&lt;span style=&quot;font-size: 10px; line-height: 107%; font-family: calibri, sans-serif;&quot;&gt;Yerpadu&lt;/span&gt;" style="rounded=0;whiteSpace=wrap;html=1;fontSize=10;fontColor=#000000;align=center;" vertex="1" parent="85VBYpExMVY2cZqk5exd-1">
          <mxGeometry x="323.3000000000001" y="664.76" width="79" height="14" as="geometry"/>
        </mxCell>
        <mxCell id="85VBYpExMVY2cZqk5exd-375" value="&lt;span style=&quot;font-size: 10px; line-height: 107%; font-family: calibri, sans-serif;&quot;&gt;Malai&lt;/span&gt;" style="rounded=0;whiteSpace=wrap;html=1;fontSize=10;fontColor=#000000;align=center;" vertex="1" parent="85VBYpExMVY2cZqk5exd-1">
          <mxGeometry x="402.60000000000014" y="664.76" width="79" height="14" as="geometry"/>
        </mxCell>
        <mxCell id="85VBYpExMVY2cZqk5exd-376" value="&lt;span style=&quot;font-size: 10px; line-height: 107%; font-family: calibri, sans-serif;&quot;&gt;Yammam&lt;/span&gt;" style="rounded=0;whiteSpace=wrap;html=1;fontSize=10;fontColor=#000000;align=center;" vertex="1" parent="85VBYpExMVY2cZqk5exd-1">
          <mxGeometry x="481.60000000000014" y="664.76" width="79" height="14" as="geometry"/>
        </mxCell>
        <mxCell id="85VBYpExMVY2cZqk5exd-377" value="&lt;span style=&quot;font-size: 10px; line-height: 107%; font-family: calibri, sans-serif;&quot;&gt;Vaikarai&lt;/span&gt;" style="rounded=0;whiteSpace=wrap;html=1;fontSize=10;fontColor=#000000;align=center;" vertex="1" parent="85VBYpExMVY2cZqk5exd-1">
          <mxGeometry x="561.3000000000001" y="664.76" width="80" height="14" as="geometry"/>
        </mxCell>
        <mxCell id="85VBYpExMVY2cZqk5exd-378" value="2-4" style="rounded=0;whiteSpace=wrap;html=1;fontColor=#000000;align=center;fontSize=9;" vertex="1" parent="85VBYpExMVY2cZqk5exd-1">
          <mxGeometry x="561.3000000000001" y="678.76" width="40" height="16" as="geometry"/>
        </mxCell>
        <mxCell id="85VBYpExMVY2cZqk5exd-379" value="4-6" style="rounded=0;whiteSpace=wrap;html=1;fontColor=#000000;align=center;fontSize=9;" vertex="1" parent="85VBYpExMVY2cZqk5exd-1">
          <mxGeometry x="601.3000000000001" y="678.76" width="40" height="16" as="geometry"/>
        </mxCell>
        <mxCell id="85VBYpExMVY2cZqk5exd-380" value="6-8" style="rounded=0;whiteSpace=wrap;html=1;fontColor=#000000;align=center;fontSize=9;" vertex="1" parent="85VBYpExMVY2cZqk5exd-1">
          <mxGeometry x="401.3000000000001" y="678.76" width="40" height="16" as="geometry"/>
        </mxCell>
        <mxCell id="85VBYpExMVY2cZqk5exd-381" value="8-10" style="rounded=0;whiteSpace=wrap;html=1;fontColor=#000000;align=center;fontSize=9;" vertex="1" parent="85VBYpExMVY2cZqk5exd-1">
          <mxGeometry x="441.3000000000001" y="678.76" width="40" height="16" as="geometry"/>
        </mxCell>
        <mxCell id="85VBYpExMVY2cZqk5exd-382" value="&lt;span style=&quot;font-size: 11px; line-height: 107%; font-family: calibri, sans-serif;&quot;&gt;Sleep&lt;/span&gt;" style="rounded=0;whiteSpace=wrap;html=1;fontSize=11;fontColor=#000000;align=center;" vertex="1" parent="85VBYpExMVY2cZqk5exd-1">
          <mxGeometry x="481.2500000000001" y="694.76" width="160.05" height="13" as="geometry"/>
        </mxCell>
        <mxCell id="85VBYpExMVY2cZqk5exd-383" value="10 -12" style="rounded=0;whiteSpace=wrap;html=1;fontColor=#000000;align=center;fontSize=9;" vertex="1" parent="85VBYpExMVY2cZqk5exd-1">
          <mxGeometry x="242.29999999999998" y="678.76" width="40" height="16" as="geometry"/>
        </mxCell>
        <mxCell id="85VBYpExMVY2cZqk5exd-384" value="0-2" style="rounded=0;whiteSpace=wrap;html=1;fontColor=#000000;align=center;fontSize=9;" vertex="1" parent="85VBYpExMVY2cZqk5exd-1">
          <mxGeometry x="282.3000000000001" y="678.76" width="40" height="16" as="geometry"/>
        </mxCell>
        <mxCell id="85VBYpExMVY2cZqk5exd-385" value="2-4" style="rounded=0;whiteSpace=wrap;html=1;fontColor=#000000;align=center;fontSize=9;" vertex="1" parent="85VBYpExMVY2cZqk5exd-1">
          <mxGeometry x="322.3000000000001" y="678.76" width="40" height="16" as="geometry"/>
        </mxCell>
        <mxCell id="85VBYpExMVY2cZqk5exd-386" value="4-6" style="rounded=0;whiteSpace=wrap;html=1;fontColor=#000000;align=center;fontSize=9;" vertex="1" parent="85VBYpExMVY2cZqk5exd-1">
          <mxGeometry x="362.3000000000001" y="678.76" width="40" height="16" as="geometry"/>
        </mxCell>
        <mxCell id="85VBYpExMVY2cZqk5exd-387" value="6-8" style="rounded=0;whiteSpace=wrap;html=1;fontColor=#000000;align=center;fontSize=9;" vertex="1" parent="85VBYpExMVY2cZqk5exd-1">
          <mxGeometry x="162.29999999999998" y="678.76" width="40" height="16" as="geometry"/>
        </mxCell>
        <mxCell id="85VBYpExMVY2cZqk5exd-388" value="8-10" style="rounded=0;whiteSpace=wrap;html=1;fontColor=#000000;align=center;fontSize=9;" vertex="1" parent="85VBYpExMVY2cZqk5exd-1">
          <mxGeometry x="202.29999999999998" y="678.76" width="40" height="16" as="geometry"/>
        </mxCell>
        <mxCell id="85VBYpExMVY2cZqk5exd-391" value="&lt;font face=&quot;calibri, sans-serif&quot; style=&quot;font-size: 11px;&quot;&gt;&lt;span style=&quot;font-size: 11px;&quot;&gt;Project / Research&lt;/span&gt;&lt;/font&gt;" style="rounded=0;whiteSpace=wrap;html=1;fontSize=11;fontColor=#000000;align=center;" vertex="1" parent="85VBYpExMVY2cZqk5exd-1">
          <mxGeometry x="210.99999999999997" y="694.76" width="169.95" height="13" as="geometry"/>
        </mxCell>
        <mxCell id="85VBYpExMVY2cZqk5exd-392" value="&lt;span style=&quot;font-size: 11px; line-height: 107%; font-family: calibri, sans-serif;&quot;&gt;Personal&lt;/span&gt;" style="rounded=0;whiteSpace=wrap;html=1;fontSize=11;fontColor=#000000;align=center;" vertex="1" parent="85VBYpExMVY2cZqk5exd-1">
          <mxGeometry x="380.9500000000001" y="694.76" width="100" height="13" as="geometry"/>
        </mxCell>
        <mxCell id="85VBYpExMVY2cZqk5exd-393" value="&lt;font style=&quot;font-size: 10px;&quot;&gt;S Day&lt;/font&gt;" style="rounded=0;whiteSpace=wrap;html=1;fontColor=#000000;align=center;fontSize=10;" vertex="1" parent="85VBYpExMVY2cZqk5exd-1">
          <mxGeometry x="161.95" y="736.38" width="479.3" height="13" as="geometry"/>
        </mxCell>
        <mxCell id="85VBYpExMVY2cZqk5exd-394" value="10 -12" style="rounded=0;whiteSpace=wrap;html=1;fontColor=#000000;align=center;fontSize=9;" vertex="1" parent="85VBYpExMVY2cZqk5exd-1">
          <mxGeometry x="480.65000000000003" y="763.13" width="40" height="14" as="geometry"/>
        </mxCell>
        <mxCell id="85VBYpExMVY2cZqk5exd-395" value="0-2" style="rounded=0;whiteSpace=wrap;html=1;fontColor=#000000;align=center;fontSize=9;" vertex="1" parent="85VBYpExMVY2cZqk5exd-1">
          <mxGeometry x="520.65" y="763.13" width="40" height="14" as="geometry"/>
        </mxCell>
        <mxCell id="85VBYpExMVY2cZqk5exd-396" value="&lt;span style=&quot;font-size: 10px; line-height: 107%; font-family: calibri, sans-serif;&quot;&gt;Kalai&lt;/span&gt;" style="rounded=0;whiteSpace=wrap;html=1;fontSize=10;fontColor=#000000;align=center;" vertex="1" parent="85VBYpExMVY2cZqk5exd-1">
          <mxGeometry x="161.65" y="749.13" width="79" height="14" as="geometry"/>
        </mxCell>
        <mxCell id="85VBYpExMVY2cZqk5exd-397" value="&lt;span style=&quot;font-size: 10px; line-height: 107%; font-family: calibri, sans-serif;&quot;&gt;Narpakaal&lt;/span&gt;" style="rounded=0;whiteSpace=wrap;html=1;fontSize=10;fontColor=#000000;align=center;" vertex="1" parent="85VBYpExMVY2cZqk5exd-1">
          <mxGeometry x="241.3" y="749.13" width="80.35" height="14" as="geometry"/>
        </mxCell>
        <mxCell id="85VBYpExMVY2cZqk5exd-398" value="&lt;span style=&quot;font-size: 10px; line-height: 107%; font-family: calibri, sans-serif;&quot;&gt;Yerpadu&lt;/span&gt;" style="rounded=0;whiteSpace=wrap;html=1;fontSize=10;fontColor=#000000;align=center;" vertex="1" parent="85VBYpExMVY2cZqk5exd-1">
          <mxGeometry x="322.65000000000003" y="749.13" width="79" height="14" as="geometry"/>
        </mxCell>
        <mxCell id="85VBYpExMVY2cZqk5exd-399" value="&lt;span style=&quot;font-size: 10px; line-height: 107%; font-family: calibri, sans-serif;&quot;&gt;Malai&lt;/span&gt;" style="rounded=0;whiteSpace=wrap;html=1;fontSize=10;fontColor=#000000;align=center;" vertex="1" parent="85VBYpExMVY2cZqk5exd-1">
          <mxGeometry x="401.95000000000005" y="749.13" width="79" height="14" as="geometry"/>
        </mxCell>
        <mxCell id="85VBYpExMVY2cZqk5exd-400" value="&lt;span style=&quot;font-size: 10px; line-height: 107%; font-family: calibri, sans-serif;&quot;&gt;Yammam&lt;/span&gt;" style="rounded=0;whiteSpace=wrap;html=1;fontSize=10;fontColor=#000000;align=center;" vertex="1" parent="85VBYpExMVY2cZqk5exd-1">
          <mxGeometry x="480.95000000000005" y="749.13" width="79" height="14" as="geometry"/>
        </mxCell>
        <mxCell id="85VBYpExMVY2cZqk5exd-401" value="&lt;span style=&quot;font-size: 10px; line-height: 107%; font-family: calibri, sans-serif;&quot;&gt;Vaikarai&lt;/span&gt;" style="rounded=0;whiteSpace=wrap;html=1;fontSize=10;fontColor=#000000;align=center;" vertex="1" parent="85VBYpExMVY2cZqk5exd-1">
          <mxGeometry x="560.65" y="749.13" width="80" height="14" as="geometry"/>
        </mxCell>
        <mxCell id="85VBYpExMVY2cZqk5exd-402" value="2-4" style="rounded=0;whiteSpace=wrap;html=1;fontColor=#000000;align=center;fontSize=9;" vertex="1" parent="85VBYpExMVY2cZqk5exd-1">
          <mxGeometry x="560.65" y="763.13" width="40" height="14" as="geometry"/>
        </mxCell>
        <mxCell id="85VBYpExMVY2cZqk5exd-403" value="4-6" style="rounded=0;whiteSpace=wrap;html=1;fontColor=#000000;align=center;fontSize=9;" vertex="1" parent="85VBYpExMVY2cZqk5exd-1">
          <mxGeometry x="600.65" y="763.13" width="40" height="14" as="geometry"/>
        </mxCell>
        <mxCell id="85VBYpExMVY2cZqk5exd-404" value="6-8" style="rounded=0;whiteSpace=wrap;html=1;fontColor=#000000;align=center;fontSize=9;" vertex="1" parent="85VBYpExMVY2cZqk5exd-1">
          <mxGeometry x="400.65000000000003" y="763.13" width="40" height="14" as="geometry"/>
        </mxCell>
        <mxCell id="85VBYpExMVY2cZqk5exd-405" value="8-10" style="rounded=0;whiteSpace=wrap;html=1;fontColor=#000000;align=center;fontSize=9;" vertex="1" parent="85VBYpExMVY2cZqk5exd-1">
          <mxGeometry x="440.65000000000003" y="763.13" width="40" height="14" as="geometry"/>
        </mxCell>
        <mxCell id="85VBYpExMVY2cZqk5exd-406" value="&lt;span style=&quot;font-size: 10px; line-height: 107%; font-family: calibri, sans-serif;&quot;&gt;Sleep&lt;/span&gt;" style="rounded=0;whiteSpace=wrap;html=1;fontSize=10;fontColor=#000000;align=center;" vertex="1" parent="85VBYpExMVY2cZqk5exd-1">
          <mxGeometry x="481.6000000000001" y="776.5" width="160.05" height="13" as="geometry"/>
        </mxCell>
        <mxCell id="85VBYpExMVY2cZqk5exd-407" value="10 -12" style="rounded=0;whiteSpace=wrap;html=1;fontColor=#000000;align=center;fontSize=9;" vertex="1" parent="85VBYpExMVY2cZqk5exd-1">
          <mxGeometry x="241.65" y="763.13" width="40" height="14" as="geometry"/>
        </mxCell>
        <mxCell id="85VBYpExMVY2cZqk5exd-408" value="0-2" style="rounded=0;whiteSpace=wrap;html=1;fontColor=#000000;align=center;fontSize=9;" vertex="1" parent="85VBYpExMVY2cZqk5exd-1">
          <mxGeometry x="281.65000000000003" y="763.13" width="40" height="14" as="geometry"/>
        </mxCell>
        <mxCell id="85VBYpExMVY2cZqk5exd-409" value="2-4" style="rounded=0;whiteSpace=wrap;html=1;fontColor=#000000;align=center;fontSize=9;" vertex="1" parent="85VBYpExMVY2cZqk5exd-1">
          <mxGeometry x="321.65000000000003" y="763.13" width="40" height="14" as="geometry"/>
        </mxCell>
        <mxCell id="85VBYpExMVY2cZqk5exd-410" value="4-6" style="rounded=0;whiteSpace=wrap;html=1;fontColor=#000000;align=center;fontSize=9;" vertex="1" parent="85VBYpExMVY2cZqk5exd-1">
          <mxGeometry x="361.65000000000003" y="763.13" width="40" height="14" as="geometry"/>
        </mxCell>
        <mxCell id="85VBYpExMVY2cZqk5exd-411" value="6-8" style="rounded=0;whiteSpace=wrap;html=1;fontColor=#000000;align=center;fontSize=9;" vertex="1" parent="85VBYpExMVY2cZqk5exd-1">
          <mxGeometry x="161.65" y="763.13" width="40" height="14" as="geometry"/>
        </mxCell>
        <mxCell id="85VBYpExMVY2cZqk5exd-412" value="8-10" style="rounded=0;whiteSpace=wrap;html=1;fontColor=#000000;align=center;fontSize=9;" vertex="1" parent="85VBYpExMVY2cZqk5exd-1">
          <mxGeometry x="201.65" y="763.13" width="40" height="14" as="geometry"/>
        </mxCell>
        <mxCell id="85VBYpExMVY2cZqk5exd-414" value="&lt;span style=&quot;font-size: 10px; line-height: 107%; font-family: calibri, sans-serif;&quot;&gt;Health&lt;/span&gt;" style="rounded=0;whiteSpace=wrap;html=1;fontSize=10;fontColor=#000000;align=center;" vertex="1" parent="85VBYpExMVY2cZqk5exd-1">
          <mxGeometry x="162.3" y="776.5" width="49" height="13" as="geometry"/>
        </mxCell>
        <mxCell id="85VBYpExMVY2cZqk5exd-416" value="&lt;span style=&quot;font-size: 10px; line-height: 107%; font-family: calibri, sans-serif;&quot;&gt;Personal&lt;/span&gt;" style="rounded=0;whiteSpace=wrap;html=1;fontSize=10;fontColor=#000000;align=center;" vertex="1" parent="85VBYpExMVY2cZqk5exd-1">
          <mxGeometry x="241.65" y="776.5" width="239.65" height="13" as="geometry"/>
        </mxCell>
        <mxCell id="85VBYpExMVY2cZqk5exd-419" value="&lt;span style=&quot;font-size: 11px; line-height: 107%; font-family: calibri, sans-serif;&quot;&gt;Health&lt;/span&gt;" style="rounded=0;whiteSpace=wrap;html=1;fontSize=11;fontColor=#000000;align=center;" vertex="1" parent="85VBYpExMVY2cZqk5exd-1">
          <mxGeometry x="161.64999999999998" y="694.76" width="49" height="13" as="geometry"/>
        </mxCell>
        <mxCell id="85VBYpExMVY2cZqk5exd-430" value="&lt;span style=&quot;font-size: 10px; line-height: 107%; font-family: calibri, sans-serif;&quot;&gt;Plan&lt;/span&gt;" style="rounded=0;whiteSpace=wrap;html=1;fontSize=10;fontColor=#000000;align=center;" vertex="1" parent="85VBYpExMVY2cZqk5exd-1">
          <mxGeometry x="210.60000000000002" y="776.5" width="31.7" height="13" as="geometry"/>
        </mxCell>
        <mxCell id="85VBYpExMVY2cZqk5exd-432" value="-" style="rounded=0;whiteSpace=wrap;html=1;fontSize=11;fontColor=#000000;align=center;" vertex="1" parent="85VBYpExMVY2cZqk5exd-1">
          <mxGeometry x="451.6" y="619.13" width="30" height="14" as="geometry"/>
        </mxCell>
        <mxCell id="85VBYpExMVY2cZqk5exd-433" value="Log/Plan" style="rounded=0;whiteSpace=wrap;html=1;fontSize=9;fontColor=#000000;align=left;spacingLeft=11;" vertex="1" parent="85VBYpExMVY2cZqk5exd-1">
          <mxGeometry x="649.4000000000001" y="546" width="90" height="17" as="geometry"/>
        </mxCell>
        <mxCell id="85VBYpExMVY2cZqk5exd-435" value="Train/Project" style="rounded=0;whiteSpace=wrap;html=1;fontSize=9;fontColor=#000000;align=left;spacingLeft=11;" vertex="1" parent="85VBYpExMVY2cZqk5exd-1">
          <mxGeometry x="649.4000000000001" y="529" width="90" height="17" as="geometry"/>
        </mxCell>
        <mxCell id="85VBYpExMVY2cZqk5exd-437" value="Exercise" style="rounded=0;whiteSpace=wrap;html=1;fontSize=9;fontColor=#000000;align=left;spacingLeft=11;" vertex="1" parent="85VBYpExMVY2cZqk5exd-1">
          <mxGeometry x="649.4000000000001" y="512" width="90" height="17" as="geometry"/>
        </mxCell>
        <mxCell id="85VBYpExMVY2cZqk5exd-438" value="D-Routine" style="rounded=0;whiteSpace=wrap;html=1;fontSize=9;fontColor=#000000;align=center;fontStyle=5" vertex="1" parent="85VBYpExMVY2cZqk5exd-1">
          <mxGeometry x="649.4000000000001" y="495" width="90" height="17" as="geometry"/>
        </mxCell>
        <mxCell id="85VBYpExMVY2cZqk5exd-445" value="Pray" style="rounded=0;whiteSpace=wrap;html=1;fontSize=9;fontColor=#000000;align=left;spacingLeft=11;" vertex="1" parent="85VBYpExMVY2cZqk5exd-1">
          <mxGeometry x="648.7" y="693.25" width="90" height="17" as="geometry"/>
        </mxCell>
        <mxCell id="85VBYpExMVY2cZqk5exd-446" value="Research/Blog" style="rounded=0;whiteSpace=wrap;html=1;fontSize=9;fontColor=#000000;align=left;spacingLeft=11;" vertex="1" parent="85VBYpExMVY2cZqk5exd-1">
          <mxGeometry x="648.7" y="676.25" width="90" height="17" as="geometry"/>
        </mxCell>
        <mxCell id="85VBYpExMVY2cZqk5exd-447" value="Finance Check" style="rounded=0;whiteSpace=wrap;html=1;fontSize=9;fontColor=#000000;align=left;spacingLeft=11;" vertex="1" parent="85VBYpExMVY2cZqk5exd-1">
          <mxGeometry x="648.7" y="659.25" width="90" height="17" as="geometry"/>
        </mxCell>
        <mxCell id="85VBYpExMVY2cZqk5exd-448" value="W-Routine" style="rounded=0;whiteSpace=wrap;html=1;fontSize=9;fontColor=#000000;align=center;fontStyle=5" vertex="1" parent="85VBYpExMVY2cZqk5exd-1">
          <mxGeometry x="648.7" y="642.25" width="90" height="17" as="geometry"/>
        </mxCell>
        <mxCell id="85VBYpExMVY2cZqk5exd-449" value="Hobby" style="rounded=0;whiteSpace=wrap;html=1;fontSize=9;fontColor=#000000;align=left;spacingLeft=11;" vertex="1" parent="85VBYpExMVY2cZqk5exd-1">
          <mxGeometry x="648.7" y="710.25" width="90" height="17" as="geometry"/>
        </mxCell>
        <mxCell id="85VBYpExMVY2cZqk5exd-450" value="Play" style="rounded=0;whiteSpace=wrap;html=1;fontSize=9;fontColor=#000000;align=left;spacingLeft=11;" vertex="1" parent="85VBYpExMVY2cZqk5exd-1">
          <mxGeometry x="649.45" y="563" width="90" height="17" as="geometry"/>
        </mxCell>
        <mxCell id="85VBYpExMVY2cZqk5exd-451" value="Tax/Balance" style="rounded=0;whiteSpace=wrap;html=1;fontSize=11;fontColor=#000000;align=center;" vertex="1" parent="85VBYpExMVY2cZqk5exd-1">
          <mxGeometry x="940" y="703.25" width="90" height="17" as="geometry"/>
        </mxCell>
        <mxCell id="85VBYpExMVY2cZqk5exd-452" value="India Visit" style="rounded=0;whiteSpace=wrap;html=1;fontSize=9;fontColor=#000000;align=center;" vertex="1" parent="85VBYpExMVY2cZqk5exd-1">
          <mxGeometry x="648.45" y="802.25" width="90" height="17" as="geometry"/>
        </mxCell>
        <mxCell id="85VBYpExMVY2cZqk5exd-453" value="Vacation" style="rounded=0;whiteSpace=wrap;html=1;fontSize=9;fontColor=#000000;align=center;" vertex="1" parent="85VBYpExMVY2cZqk5exd-1">
          <mxGeometry x="648.45" y="785.25" width="90" height="17" as="geometry"/>
        </mxCell>
        <mxCell id="85VBYpExMVY2cZqk5exd-454" value="Y-Routine" style="rounded=0;whiteSpace=wrap;html=1;fontSize=9;fontColor=#000000;align=center;fontStyle=5" vertex="1" parent="85VBYpExMVY2cZqk5exd-1">
          <mxGeometry x="648.45" y="768.25" width="90" height="17" as="geometry"/>
        </mxCell>
        <mxCell id="85VBYpExMVY2cZqk5exd-461" value="4 x 6" style="rounded=0;whiteSpace=wrap;html=1;fontColor=#000000;align=center;fontSize=10;" vertex="1" parent="85VBYpExMVY2cZqk5exd-1">
          <mxGeometry x="387.25" y="537.75" width="49.8" height="17" as="geometry"/>
        </mxCell>
        <mxCell id="85VBYpExMVY2cZqk5exd-463" value="4 x 6" style="rounded=0;whiteSpace=wrap;html=1;fontColor=#000000;align=center;fontSize=10;" vertex="1" parent="85VBYpExMVY2cZqk5exd-1">
          <mxGeometry x="330.55000000000007" y="537.25" width="56.7" height="17" as="geometry"/>
        </mxCell>
        <mxCell id="85VBYpExMVY2cZqk5exd-464" value="4 x 6" style="rounded=0;whiteSpace=wrap;html=1;fontColor=#000000;align=center;fontSize=10;" vertex="1" parent="85VBYpExMVY2cZqk5exd-1">
          <mxGeometry x="273.8500000000001" y="537.25" width="56.7" height="17" as="geometry"/>
        </mxCell>
        <mxCell id="85VBYpExMVY2cZqk5exd-465" value="4 x 6" style="rounded=0;whiteSpace=wrap;html=1;fontColor=#000000;align=center;fontSize=10;" vertex="1" parent="85VBYpExMVY2cZqk5exd-1">
          <mxGeometry x="217.15000000000006" y="537.75" width="56.7" height="17" as="geometry"/>
        </mxCell>
        <mxCell id="85VBYpExMVY2cZqk5exd-466" value="4 x 6" style="rounded=0;whiteSpace=wrap;html=1;fontColor=#000000;align=center;fontSize=10;" vertex="1" parent="85VBYpExMVY2cZqk5exd-1">
          <mxGeometry x="159.25000000000006" y="537.75" width="56.7" height="17" as="geometry"/>
        </mxCell>
        <mxCell id="85VBYpExMVY2cZqk5exd-468" value="6M Cook" style="rounded=0;whiteSpace=wrap;html=1;fontSize=9;fontColor=#000000;align=left;spacingLeft=11;" vertex="1" parent="85VBYpExMVY2cZqk5exd-1">
          <mxGeometry x="649.8000000000001" y="580" width="90" height="17" as="geometry"/>
        </mxCell>
        <mxCell id="85VBYpExMVY2cZqk5exd-469" value="Outting" style="rounded=0;whiteSpace=wrap;html=1;fontSize=9;fontColor=#000000;align=left;spacingLeft=10;" vertex="1" parent="85VBYpExMVY2cZqk5exd-1">
          <mxGeometry x="749.6000000000001" y="530" width="90" height="17" as="geometry"/>
        </mxCell>
        <mxCell id="85VBYpExMVY2cZqk5exd-470" value="Savings - Chk" style="rounded=0;whiteSpace=wrap;html=1;fontSize=9;fontColor=#000000;align=left;spacingLeft=10;" vertex="1" parent="85VBYpExMVY2cZqk5exd-1">
          <mxGeometry x="749.6000000000001" y="513" width="90" height="17" as="geometry"/>
        </mxCell>
        <mxCell id="85VBYpExMVY2cZqk5exd-472" value="Bi-Routine" style="rounded=0;whiteSpace=wrap;html=1;fontSize=9;fontColor=#000000;align=center;fontStyle=5" vertex="1" parent="85VBYpExMVY2cZqk5exd-1">
          <mxGeometry x="749.6000000000001" y="495" width="90" height="17" as="geometry"/>
        </mxCell>
        <mxCell id="85VBYpExMVY2cZqk5exd-473" value="Trading" style="rounded=0;whiteSpace=wrap;html=1;fontSize=9;fontColor=#000000;align=left;spacingLeft=10;" vertex="1" parent="85VBYpExMVY2cZqk5exd-1">
          <mxGeometry x="749.6000000000001" y="547" width="90" height="17" as="geometry"/>
        </mxCell>
        <mxCell id="85VBYpExMVY2cZqk5exd-474" value="M-routine" style="rounded=0;whiteSpace=wrap;html=1;fontSize=10;fontColor=#000000;align=center;" vertex="1" parent="85VBYpExMVY2cZqk5exd-1">
          <mxGeometry x="749.6" y="450.22999999999996" width="90" height="15" as="geometry"/>
        </mxCell>
        <mxCell id="85VBYpExMVY2cZqk5exd-475" value="Bi-routine" style="rounded=0;whiteSpace=wrap;html=1;fontSize=10;fontColor=#000000;align=center;" vertex="1" parent="85VBYpExMVY2cZqk5exd-1">
          <mxGeometry x="750.6" y="465.22999999999996" width="89.65" height="15" as="geometry"/>
        </mxCell>
        <mxCell id="85VBYpExMVY2cZqk5exd-476" value="3M-routine" style="rounded=0;whiteSpace=wrap;html=1;fontSize=10;fontColor=#000000;align=center;" vertex="1" parent="85VBYpExMVY2cZqk5exd-1">
          <mxGeometry x="750.25" y="435.08" width="90" height="15" as="geometry"/>
        </mxCell>
        <mxCell id="85VBYpExMVY2cZqk5exd-477" value="6M-routine" style="rounded=0;whiteSpace=wrap;html=1;fontSize=10;fontColor=#000000;align=center;" vertex="1" parent="85VBYpExMVY2cZqk5exd-1">
          <mxGeometry x="749.9" y="420.08" width="90" height="15" as="geometry"/>
        </mxCell>
        <mxCell id="85VBYpExMVY2cZqk5exd-478" value="Y-routine" style="rounded=0;whiteSpace=wrap;html=1;fontSize=10;fontColor=#000000;align=center;" vertex="1" parent="85VBYpExMVY2cZqk5exd-1">
          <mxGeometry x="750.25" y="405.08" width="90" height="15" as="geometry"/>
        </mxCell>
        <mxCell id="85VBYpExMVY2cZqk5exd-482" value="House Chk" style="rounded=0;whiteSpace=wrap;html=1;fontSize=9;fontColor=#000000;align=left;spacingLeft=10;" vertex="1" parent="85VBYpExMVY2cZqk5exd-1">
          <mxGeometry x="748.2500000000001" y="659.25" width="90" height="17" as="geometry"/>
        </mxCell>
        <mxCell id="85VBYpExMVY2cZqk5exd-483" value="Car Check" style="rounded=0;whiteSpace=wrap;html=1;fontSize=9;fontColor=#000000;align=left;spacingLeft=10;" vertex="1" parent="85VBYpExMVY2cZqk5exd-1">
          <mxGeometry x="748.2500000000001" y="642.25" width="90" height="17" as="geometry"/>
        </mxCell>
        <mxCell id="85VBYpExMVY2cZqk5exd-484" value="Goals" style="rounded=0;whiteSpace=wrap;html=1;fontSize=9;fontColor=#000000;align=left;spacingLeft=10;" vertex="1" parent="85VBYpExMVY2cZqk5exd-1">
          <mxGeometry x="748.2500000000001" y="625.25" width="90" height="17" as="geometry"/>
        </mxCell>
        <mxCell id="85VBYpExMVY2cZqk5exd-485" value="M-Routine" style="rounded=0;whiteSpace=wrap;html=1;fontSize=9;fontColor=#000000;align=center;fontStyle=5" vertex="1" parent="85VBYpExMVY2cZqk5exd-1">
          <mxGeometry x="748.2500000000001" y="608.25" width="90" height="17" as="geometry"/>
        </mxCell>
        <mxCell id="85VBYpExMVY2cZqk5exd-486" value="Shop" style="rounded=0;whiteSpace=wrap;html=1;fontSize=9;fontColor=#000000;align=left;spacingLeft=10;" vertex="1" parent="85VBYpExMVY2cZqk5exd-1">
          <mxGeometry x="748.2500000000001" y="676.25" width="90" height="17" as="geometry"/>
        </mxCell>
        <mxCell id="85VBYpExMVY2cZqk5exd-487" value="F-Calls" style="rounded=0;whiteSpace=wrap;html=1;fontSize=9;fontColor=#000000;align=left;spacingLeft=11;" vertex="1" parent="85VBYpExMVY2cZqk5exd-1">
          <mxGeometry x="649.8000000000001" y="597.75" width="90" height="17" as="geometry"/>
        </mxCell>
        <mxCell id="85VBYpExMVY2cZqk5exd-489" value="Release" style="rounded=0;whiteSpace=wrap;html=1;fontSize=9;fontColor=#000000;align=left;spacingLeft=10;" vertex="1" parent="85VBYpExMVY2cZqk5exd-1">
          <mxGeometry x="749.6000000000001" y="564.75" width="90" height="17" as="geometry"/>
        </mxCell>
        <mxCell id="85VBYpExMVY2cZqk5exd-490" value="Date" style="rounded=0;whiteSpace=wrap;html=1;fontSize=9;fontColor=#000000;align=left;spacingLeft=11;" vertex="1" parent="85VBYpExMVY2cZqk5exd-1">
          <mxGeometry x="648.7" y="727.25" width="90" height="17" as="geometry"/>
        </mxCell>
        <mxCell id="85VBYpExMVY2cZqk5exd-491" value="House clean" style="rounded=0;whiteSpace=wrap;html=1;fontSize=9;fontColor=#000000;align=left;spacingLeft=11;" vertex="1" parent="85VBYpExMVY2cZqk5exd-1">
          <mxGeometry x="648.7" y="744.25" width="90" height="17" as="geometry"/>
        </mxCell>
        <mxCell id="85VBYpExMVY2cZqk5exd-493" value="Health Chk" style="rounded=0;whiteSpace=wrap;html=1;fontSize=9;fontColor=#000000;align=left;spacingLeft=10;" vertex="1" parent="85VBYpExMVY2cZqk5exd-1">
          <mxGeometry x="748.0500000000002" y="768.75" width="90" height="17" as="geometry"/>
        </mxCell>
        <mxCell id="85VBYpExMVY2cZqk5exd-494" value="Job Chk" style="rounded=0;whiteSpace=wrap;html=1;fontSize=9;fontColor=#000000;align=left;spacingLeft=10;" vertex="1" parent="85VBYpExMVY2cZqk5exd-1">
          <mxGeometry x="748.0500000000002" y="751.75" width="90" height="17" as="geometry"/>
        </mxCell>
        <mxCell id="85VBYpExMVY2cZqk5exd-495" value="3M-Routine" style="rounded=0;whiteSpace=wrap;html=1;fontSize=9;fontColor=#000000;align=center;fontStyle=5" vertex="1" parent="85VBYpExMVY2cZqk5exd-1">
          <mxGeometry x="748.0500000000002" y="734.75" width="90" height="17" as="geometry"/>
        </mxCell>
        <mxCell id="85VBYpExMVY2cZqk5exd-497" value="Resume" style="rounded=0;whiteSpace=wrap;html=1;fontSize=9;fontColor=#000000;align=left;spacingLeft=10;" vertex="1" parent="85VBYpExMVY2cZqk5exd-1">
          <mxGeometry x="749.6000000000001" y="581.75" width="90" height="17" as="geometry"/>
        </mxCell>
        <mxCell id="85VBYpExMVY2cZqk5exd-499" value="LinkedIn" style="rounded=0;whiteSpace=wrap;html=1;fontSize=9;fontColor=#000000;align=left;spacingLeft=10;" vertex="1" parent="85VBYpExMVY2cZqk5exd-1">
          <mxGeometry x="748.2500000000001" y="693.25" width="90" height="17" as="geometry"/>
        </mxCell>
        <mxCell id="85VBYpExMVY2cZqk5exd-500" value="Parents update" style="rounded=0;whiteSpace=wrap;html=1;fontSize=9;fontColor=#000000;align=left;spacingLeft=10;" vertex="1" parent="85VBYpExMVY2cZqk5exd-1">
          <mxGeometry x="748.0500000000002" y="785.75" width="90" height="17" as="geometry"/>
        </mxCell>
        <mxCell id="85VBYpExMVY2cZqk5exd-501" value="Family Chk" style="rounded=0;whiteSpace=wrap;html=1;fontSize=9;fontColor=#000000;align=left;spacingLeft=10;" vertex="1" parent="85VBYpExMVY2cZqk5exd-1">
          <mxGeometry x="747.7000000000002" y="802.75" width="90" height="17" as="geometry"/>
        </mxCell>
        <mxCell id="85VBYpExMVY2cZqk5exd-521" value="Social Media" style="rounded=0;whiteSpace=wrap;html=1;fontSize=9;fontColor=#000000;align=left;spacingLeft=11;" vertex="1" parent="85VBYpExMVY2cZqk5exd-1">
          <mxGeometry x="649.6500000000001" y="614.75" width="90" height="17" as="geometry"/>
        </mxCell>
        <mxCell id="85VBYpExMVY2cZqk5exd-523" value="Mobile Chk" style="rounded=0;whiteSpace=wrap;html=1;fontSize=9;fontColor=#000000;align=left;spacingLeft=10;" vertex="1" parent="85VBYpExMVY2cZqk5exd-1">
          <mxGeometry x="748.3500000000001" y="709.5" width="90" height="17" as="geometry"/>
        </mxCell>
        <mxCell id="85VBYpExMVY2cZqk5exd-550" value="&lt;span style=&quot;font-size: 11px; line-height: 107%; font-family: calibri, sans-serif;&quot;&gt;Per&lt;/span&gt;" style="rounded=0;whiteSpace=wrap;html=1;fontSize=11;fontColor=#000000;align=center;" vertex="1" parent="85VBYpExMVY2cZqk5exd-1">
          <mxGeometry x="181.6" y="619.13" width="30" height="14" as="geometry"/>
        </mxCell>
        <mxCell id="85VBYpExMVY2cZqk5exd-551" value="&lt;span style=&quot;font-size: 11px; line-height: 107%; font-family: calibri, sans-serif;&quot;&gt;H&lt;/span&gt;" style="rounded=0;whiteSpace=wrap;html=1;fontSize=11;fontColor=#000000;align=center;" vertex="1" parent="85VBYpExMVY2cZqk5exd-1">
          <mxGeometry x="431.47" y="619.13" width="19.65" height="14" as="geometry"/>
        </mxCell>
        <mxCell id="85VBYpExMVY2cZqk5exd-566" value="" style="whiteSpace=wrap;html=1;aspect=fixed;strokeWidth=1;fontSize=9;fontColor=#000000;align=center;" vertex="1" parent="85VBYpExMVY2cZqk5exd-1">
          <mxGeometry x="653.45" y="534.5" width="7" height="7" as="geometry"/>
        </mxCell>
        <mxCell id="85VBYpExMVY2cZqk5exd-567" value="" style="ellipse;whiteSpace=wrap;html=1;aspect=fixed;strokeWidth=1;fontSize=9;fontColor=#000000;align=center;" vertex="1" parent="85VBYpExMVY2cZqk5exd-1">
          <mxGeometry x="653.45" y="517.5" width="7" height="7" as="geometry"/>
        </mxCell>
        <mxCell id="85VBYpExMVY2cZqk5exd-568" value="" style="rounded=1;whiteSpace=wrap;html=1;strokeWidth=1;fontSize=9;fontColor=#000000;align=center;" vertex="1" parent="85VBYpExMVY2cZqk5exd-1">
          <mxGeometry x="653.45" y="551.5" width="8" height="8" as="geometry"/>
        </mxCell>
        <mxCell id="85VBYpExMVY2cZqk5exd-569" value="" style="triangle;whiteSpace=wrap;html=1;strokeWidth=1;fontSize=9;fontColor=#000000;align=center;" vertex="1" parent="85VBYpExMVY2cZqk5exd-1">
          <mxGeometry x="653.45" y="568" width="7" height="8" as="geometry"/>
        </mxCell>
        <mxCell id="85VBYpExMVY2cZqk5exd-570" value="" style="shape=process;whiteSpace=wrap;html=1;backgroundOutline=1;strokeWidth=1;fontSize=9;fontColor=#000000;align=center;" vertex="1" parent="85VBYpExMVY2cZqk5exd-1">
          <mxGeometry x="652.45" y="584.25" width="9" height="9" as="geometry"/>
        </mxCell>
        <mxCell id="85VBYpExMVY2cZqk5exd-571" value="" style="shape=hexagon;perimeter=hexagonPerimeter2;whiteSpace=wrap;html=1;strokeWidth=1;fontSize=9;fontColor=#000000;align=center;" vertex="1" parent="85VBYpExMVY2cZqk5exd-1">
          <mxGeometry x="652.45" y="602.75" width="10" height="9" as="geometry"/>
        </mxCell>
        <mxCell id="85VBYpExMVY2cZqk5exd-572" value="" style="ellipse;shape=cloud;whiteSpace=wrap;html=1;strokeWidth=1;fontSize=9;fontColor=#000000;align=center;" vertex="1" parent="85VBYpExMVY2cZqk5exd-1">
          <mxGeometry x="652.95" y="617.75" width="8" height="11" as="geometry"/>
        </mxCell>
        <mxCell id="85VBYpExMVY2cZqk5exd-573" value="" style="ellipse;whiteSpace=wrap;html=1;aspect=fixed;strokeWidth=1;fontSize=8;fontColor=#000000;align=center;" vertex="1" parent="85VBYpExMVY2cZqk5exd-1">
          <mxGeometry x="161.6" y="637" width="7" height="7" as="geometry"/>
        </mxCell>
        <mxCell id="85VBYpExMVY2cZqk5exd-575" value="" style="whiteSpace=wrap;html=1;aspect=fixed;strokeWidth=1;fontSize=8;fontColor=#000000;align=center;" vertex="1" parent="85VBYpExMVY2cZqk5exd-1">
          <mxGeometry x="601.95" y="636" width="7" height="7" as="geometry"/>
        </mxCell>
        <mxCell id="85VBYpExMVY2cZqk5exd-576" value="" style="rounded=1;whiteSpace=wrap;html=1;strokeWidth=1;fontSize=8;fontColor=#000000;align=center;" vertex="1" parent="85VBYpExMVY2cZqk5exd-1">
          <mxGeometry x="451.6" y="635.5" width="8" height="8" as="geometry"/>
        </mxCell>
        <mxCell id="85VBYpExMVY2cZqk5exd-577" value="" style="triangle;whiteSpace=wrap;html=1;strokeWidth=1;fontSize=8;fontColor=#000000;align=center;" vertex="1" parent="85VBYpExMVY2cZqk5exd-1">
          <mxGeometry x="394.95000000000005" y="636" width="7" height="8" as="geometry"/>
        </mxCell>
        <mxCell id="85VBYpExMVY2cZqk5exd-578" value="" style="shape=process;whiteSpace=wrap;html=1;backgroundOutline=1;strokeWidth=1;fontSize=8;fontColor=#000000;align=center;" vertex="1" parent="85VBYpExMVY2cZqk5exd-1">
          <mxGeometry x="181.60000000000002" y="636" width="9" height="9" as="geometry"/>
        </mxCell>
        <mxCell id="85VBYpExMVY2cZqk5exd-579" value="" style="shape=hexagon;perimeter=hexagonPerimeter2;whiteSpace=wrap;html=1;strokeWidth=1;fontSize=8;fontColor=#000000;align=center;" vertex="1" parent="85VBYpExMVY2cZqk5exd-1">
          <mxGeometry x="461.6" y="635" width="10" height="9" as="geometry"/>
        </mxCell>
        <mxCell id="85VBYpExMVY2cZqk5exd-580" value="" style="ellipse;shape=cloud;whiteSpace=wrap;html=1;strokeWidth=1;fontSize=8;fontColor=#000000;align=center;" vertex="1" parent="85VBYpExMVY2cZqk5exd-1">
          <mxGeometry x="273.90000000000003" y="634" width="8" height="11" as="geometry"/>
        </mxCell>
        <mxCell id="85VBYpExMVY2cZqk5exd-582" value="" style="whiteSpace=wrap;html=1;aspect=fixed;strokeWidth=1;fontSize=9;fontColor=#000000;align=center;" vertex="1" parent="85VBYpExMVY2cZqk5exd-1">
          <mxGeometry x="651.95" y="682.13" width="7" height="7" as="geometry"/>
        </mxCell>
        <mxCell id="85VBYpExMVY2cZqk5exd-583" value="" style="ellipse;whiteSpace=wrap;html=1;aspect=fixed;strokeWidth=1;fontSize=9;fontColor=#000000;align=center;" vertex="1" parent="85VBYpExMVY2cZqk5exd-1">
          <mxGeometry x="651.95" y="665.13" width="7" height="7" as="geometry"/>
        </mxCell>
        <mxCell id="85VBYpExMVY2cZqk5exd-584" value="" style="rounded=1;whiteSpace=wrap;html=1;strokeWidth=1;fontSize=9;fontColor=#000000;align=center;" vertex="1" parent="85VBYpExMVY2cZqk5exd-1">
          <mxGeometry x="651.95" y="698.13" width="8" height="8" as="geometry"/>
        </mxCell>
        <mxCell id="85VBYpExMVY2cZqk5exd-585" value="" style="triangle;whiteSpace=wrap;html=1;strokeWidth=1;fontSize=9;fontColor=#000000;align=center;" vertex="1" parent="85VBYpExMVY2cZqk5exd-1">
          <mxGeometry x="651.95" y="713.63" width="7" height="8" as="geometry"/>
        </mxCell>
        <mxCell id="85VBYpExMVY2cZqk5exd-586" value="" style="shape=process;whiteSpace=wrap;html=1;backgroundOutline=1;strokeWidth=1;fontSize=9;fontColor=#000000;align=center;" vertex="1" parent="85VBYpExMVY2cZqk5exd-1">
          <mxGeometry x="650.95" y="729.88" width="9" height="9" as="geometry"/>
        </mxCell>
        <mxCell id="85VBYpExMVY2cZqk5exd-587" value="" style="shape=hexagon;perimeter=hexagonPerimeter2;whiteSpace=wrap;html=1;strokeWidth=1;fontSize=9;fontColor=#000000;align=center;" vertex="1" parent="85VBYpExMVY2cZqk5exd-1">
          <mxGeometry x="650.95" y="748.38" width="10" height="9" as="geometry"/>
        </mxCell>
        <mxCell id="85VBYpExMVY2cZqk5exd-589" value="" style="whiteSpace=wrap;html=1;aspect=fixed;strokeWidth=1;fontSize=8;fontColor=#000000;align=center;" vertex="1" parent="85VBYpExMVY2cZqk5exd-1">
          <mxGeometry x="213.89999999999998" y="710.38" width="7" height="7" as="geometry"/>
        </mxCell>
        <mxCell id="85VBYpExMVY2cZqk5exd-590" value="" style="ellipse;whiteSpace=wrap;html=1;aspect=fixed;strokeWidth=1;fontSize=8;fontColor=#000000;align=center;" vertex="1" parent="85VBYpExMVY2cZqk5exd-1">
          <mxGeometry x="212.85" y="792.88" width="7" height="7" as="geometry"/>
        </mxCell>
        <mxCell id="85VBYpExMVY2cZqk5exd-591" value="" style="rounded=1;whiteSpace=wrap;html=1;strokeWidth=1;fontSize=8;fontColor=#000000;align=center;" vertex="1" parent="85VBYpExMVY2cZqk5exd-1">
          <mxGeometry x="382.40000000000003" y="709.88" width="8" height="8" as="geometry"/>
        </mxCell>
        <mxCell id="85VBYpExMVY2cZqk5exd-592" value="" style="triangle;whiteSpace=wrap;html=1;strokeWidth=1;fontSize=8;fontColor=#000000;align=center;" vertex="1" parent="85VBYpExMVY2cZqk5exd-1">
          <mxGeometry x="249.75" y="792.88" width="7" height="8" as="geometry"/>
        </mxCell>
        <mxCell id="85VBYpExMVY2cZqk5exd-593" value="" style="shape=process;whiteSpace=wrap;html=1;backgroundOutline=1;strokeWidth=1;fontSize=8;fontColor=#000000;align=center;" vertex="1" parent="85VBYpExMVY2cZqk5exd-1">
          <mxGeometry x="261.4" y="792.38" width="9" height="9" as="geometry"/>
        </mxCell>
        <mxCell id="85VBYpExMVY2cZqk5exd-594" value="" style="shape=hexagon;perimeter=hexagonPerimeter2;whiteSpace=wrap;html=1;strokeWidth=1;fontSize=8;fontColor=#000000;align=center;" vertex="1" parent="85VBYpExMVY2cZqk5exd-1">
          <mxGeometry x="394.80000000000007" y="708.88" width="10" height="9" as="geometry"/>
        </mxCell>
        <mxCell id="85VBYpExMVY2cZqk5exd-600" value="" style="shape=orEllipse;perimeter=ellipsePerimeter;whiteSpace=wrap;html=1;backgroundOutline=1;strokeWidth=1;fontSize=9;fontColor=#000000;align=center;" vertex="1" parent="85VBYpExMVY2cZqk5exd-1">
          <mxGeometry x="751.62" y="517" width="9" height="9" as="geometry"/>
        </mxCell>
        <mxCell id="85VBYpExMVY2cZqk5exd-601" value="" style="shape=sumEllipse;perimeter=ellipsePerimeter;whiteSpace=wrap;html=1;backgroundOutline=1;strokeWidth=1;fontSize=9;fontColor=#000000;align=center;" vertex="1" parent="85VBYpExMVY2cZqk5exd-1">
          <mxGeometry x="751.62" y="534.5699999999999" width="9" height="9" as="geometry"/>
        </mxCell>
        <mxCell id="85VBYpExMVY2cZqk5exd-602" value="" style="shape=lineEllipse;perimeter=ellipsePerimeter;whiteSpace=wrap;html=1;backgroundOutline=1;strokeWidth=1;fontSize=9;fontColor=#000000;align=center;" vertex="1" parent="85VBYpExMVY2cZqk5exd-1">
          <mxGeometry x="751.12" y="550.5" width="9" height="9" as="geometry"/>
        </mxCell>
        <mxCell id="85VBYpExMVY2cZqk5exd-603" value="" style="shape=lineEllipse;line=vertical;perimeter=ellipsePerimeter;whiteSpace=wrap;html=1;backgroundOutline=1;strokeWidth=1;fontSize=9;fontColor=#000000;align=center;" vertex="1" parent="85VBYpExMVY2cZqk5exd-1">
          <mxGeometry x="751.62" y="568" width="9" height="9" as="geometry"/>
        </mxCell>
        <mxCell id="85VBYpExMVY2cZqk5exd-604" value="" style="shape=sortShape;perimeter=rhombusPerimeter;whiteSpace=wrap;html=1;strokeWidth=1;fontSize=9;fontColor=#000000;align=center;" vertex="1" parent="85VBYpExMVY2cZqk5exd-1">
          <mxGeometry x="751.62" y="584.25" width="9" height="9" as="geometry"/>
        </mxCell>
        <mxCell id="85VBYpExMVY2cZqk5exd-605" value="" style="shape=orEllipse;perimeter=ellipsePerimeter;whiteSpace=wrap;html=1;backgroundOutline=1;strokeWidth=1;fontSize=8;fontColor=#000000;align=center;" vertex="1" parent="85VBYpExMVY2cZqk5exd-1">
          <mxGeometry x="211.84999999999997" y="803.26" width="9" height="9" as="geometry"/>
        </mxCell>
        <mxCell id="85VBYpExMVY2cZqk5exd-606" value="" style="shape=sumEllipse;perimeter=ellipsePerimeter;whiteSpace=wrap;html=1;backgroundOutline=1;strokeWidth=1;fontSize=8;fontColor=#000000;align=center;" vertex="1" parent="85VBYpExMVY2cZqk5exd-1">
          <mxGeometry x="247.75000000000003" y="803.2599999999999" width="9" height="9" as="geometry"/>
        </mxCell>
        <mxCell id="85VBYpExMVY2cZqk5exd-607" value="" style="shape=lineEllipse;perimeter=ellipsePerimeter;whiteSpace=wrap;html=1;backgroundOutline=1;strokeWidth=1;fontSize=8;fontColor=#000000;align=center;" vertex="1" parent="85VBYpExMVY2cZqk5exd-1">
          <mxGeometry x="381.40000000000003" y="721.01" width="9" height="9" as="geometry"/>
        </mxCell>
        <mxCell id="85VBYpExMVY2cZqk5exd-608" value="" style="shape=lineEllipse;line=vertical;perimeter=ellipsePerimeter;whiteSpace=wrap;html=1;backgroundOutline=1;strokeWidth=1;fontSize=8;fontColor=#000000;align=center;" vertex="1" parent="85VBYpExMVY2cZqk5exd-1">
          <mxGeometry x="213.39999999999998" y="720.38" width="9" height="9" as="geometry"/>
        </mxCell>
        <mxCell id="85VBYpExMVY2cZqk5exd-609" value="" style="shape=sortShape;perimeter=rhombusPerimeter;whiteSpace=wrap;html=1;strokeWidth=1;fontSize=8;fontColor=#000000;align=center;" vertex="1" parent="85VBYpExMVY2cZqk5exd-1">
          <mxGeometry x="225.39999999999998" y="719.88" width="9" height="9" as="geometry"/>
        </mxCell>
        <mxCell id="85VBYpExMVY2cZqk5exd-624" value="" style="shape=mxgraph.pid.feeders.proportional_feeder_(rotary_valve);html=1;pointerEvents=1;align=center;verticalLabelPosition=bottom;verticalAlign=top;dashed=0;strokeWidth=1;fontSize=9;fontColor=#000000;" vertex="1" parent="85VBYpExMVY2cZqk5exd-1">
          <mxGeometry x="750.12" y="629.75" width="9" height="9" as="geometry"/>
        </mxCell>
        <mxCell id="85VBYpExMVY2cZqk5exd-625" value="" style="shape=mxgraph.pid.feeders.proportional_feeder;html=1;pointerEvents=1;align=center;verticalLabelPosition=bottom;verticalAlign=top;dashed=0;strokeWidth=1;fontSize=9;fontColor=#000000;" vertex="1" parent="85VBYpExMVY2cZqk5exd-1">
          <mxGeometry x="750.62" y="646.37" width="9" height="9" as="geometry"/>
        </mxCell>
        <mxCell id="85VBYpExMVY2cZqk5exd-626" value="" style="shape=mxgraph.pid.fittings.self-operating_release_valve;html=1;pointerEvents=1;align=center;verticalLabelPosition=bottom;verticalAlign=top;dashed=0;strokeWidth=1;fontSize=9;fontColor=#000000;" vertex="1" parent="85VBYpExMVY2cZqk5exd-1">
          <mxGeometry x="750.62" y="663.25" width="9" height="9" as="geometry"/>
        </mxCell>
        <mxCell id="85VBYpExMVY2cZqk5exd-627" value="" style="verticalLabelPosition=bottom;align=center;dashed=0;html=1;verticalAlign=top;shape=mxgraph.pid.piping.cap;strokeWidth=1;fontSize=9;fontColor=#000000;" vertex="1" parent="85VBYpExMVY2cZqk5exd-1">
          <mxGeometry x="754.62" y="680.63" width="5" height="9" as="geometry"/>
        </mxCell>
        <mxCell id="85VBYpExMVY2cZqk5exd-628" value="" style="verticalLabelPosition=bottom;align=center;dashed=0;html=1;verticalAlign=top;shape=mxgraph.pid.piping.welded_connection;strokeWidth=1;fontSize=9;fontColor=#000000;" vertex="1" parent="85VBYpExMVY2cZqk5exd-1">
          <mxGeometry x="750.12" y="698.13" width="9" height="9" as="geometry"/>
        </mxCell>
        <mxCell id="85VBYpExMVY2cZqk5exd-629" value="" style="verticalLabelPosition=bottom;align=center;dashed=0;html=1;verticalAlign=top;shape=mxgraph.pid.piping.t-type_strainer;strokeWidth=1;fontSize=9;fontColor=#000000;" vertex="1" parent="85VBYpExMVY2cZqk5exd-1">
          <mxGeometry x="750.62" y="712.63" width="9" height="10" as="geometry"/>
        </mxCell>
        <mxCell id="85VBYpExMVY2cZqk5exd-630" value="" style="verticalLabelPosition=bottom;align=center;html=1;verticalAlign=top;pointerEvents=1;dashed=0;shape=mxgraph.pid2valves.valve;valveType=gate;strokeWidth=1;fontSize=9;fontColor=#000000;" vertex="1" parent="85VBYpExMVY2cZqk5exd-1">
          <mxGeometry x="750.12" y="756.25" width="9" height="9" as="geometry"/>
        </mxCell>
        <mxCell id="85VBYpExMVY2cZqk5exd-631" value="" style="verticalLabelPosition=bottom;align=center;html=1;verticalAlign=top;pointerEvents=1;dashed=0;shape=mxgraph.pid2valves.valve;valveType=gate;defState=closed;strokeWidth=1;fontSize=9;fontColor=#000000;" vertex="1" parent="85VBYpExMVY2cZqk5exd-1">
          <mxGeometry x="750.25" y="772.75" width="9" height="9" as="geometry"/>
        </mxCell>
        <mxCell id="85VBYpExMVY2cZqk5exd-632" value="" style="verticalLabelPosition=bottom;align=center;html=1;verticalAlign=top;pointerEvents=1;dashed=0;shape=mxgraph.pid2valves.valve;valveType=ball;strokeWidth=1;fontSize=9;fontColor=#000000;" vertex="1" parent="85VBYpExMVY2cZqk5exd-1">
          <mxGeometry x="750.25" y="791.75" width="10" height="8" as="geometry"/>
        </mxCell>
        <mxCell id="85VBYpExMVY2cZqk5exd-633" value="" style="verticalLabelPosition=bottom;align=center;html=1;verticalAlign=top;pointerEvents=1;dashed=0;shape=mxgraph.pid2valves.valve;valveType=ball;defState=closed;strokeWidth=1;fontSize=9;fontColor=#000000;" vertex="1" parent="85VBYpExMVY2cZqk5exd-1">
          <mxGeometry x="749.75" y="807.25" width="9" height="8" as="geometry"/>
        </mxCell>
        <mxCell id="85VBYpExMVY2cZqk5exd-634" value="" style="shape=mxgraph.pid.feeders.proportional_feeder_(rotary_valve);html=1;pointerEvents=1;align=center;verticalLabelPosition=bottom;verticalAlign=top;dashed=0;strokeWidth=1;fontSize=8;fontColor=#000000;" vertex="1" parent="85VBYpExMVY2cZqk5exd-1">
          <mxGeometry x="211.25" y="815.26" width="9" height="9" as="geometry"/>
        </mxCell>
        <mxCell id="85VBYpExMVY2cZqk5exd-635" value="" style="shape=mxgraph.pid.feeders.proportional_feeder;html=1;pointerEvents=1;align=center;verticalLabelPosition=bottom;verticalAlign=top;dashed=0;strokeWidth=1;fontSize=8;fontColor=#000000;" vertex="1" parent="85VBYpExMVY2cZqk5exd-1">
          <mxGeometry x="246.95" y="815.26" width="9" height="9" as="geometry"/>
        </mxCell>
        <mxCell id="85VBYpExMVY2cZqk5exd-636" value="" style="shape=mxgraph.pid.fittings.self-operating_release_valve;html=1;pointerEvents=1;align=center;verticalLabelPosition=bottom;verticalAlign=top;dashed=0;strokeWidth=1;fontSize=8;fontColor=#000000;" vertex="1" parent="85VBYpExMVY2cZqk5exd-1">
          <mxGeometry x="260.09999999999997" y="815.26" width="9" height="9" as="geometry"/>
        </mxCell>
        <mxCell id="85VBYpExMVY2cZqk5exd-637" value="" style="verticalLabelPosition=bottom;align=center;dashed=0;html=1;verticalAlign=top;shape=mxgraph.pid.piping.cap;strokeWidth=1;fontSize=8;fontColor=#000000;" vertex="1" parent="85VBYpExMVY2cZqk5exd-1">
          <mxGeometry x="273.34999999999997" y="815.26" width="5" height="9" as="geometry"/>
        </mxCell>
        <mxCell id="85VBYpExMVY2cZqk5exd-638" value="" style="verticalLabelPosition=bottom;align=center;dashed=0;html=1;verticalAlign=top;shape=mxgraph.pid.piping.welded_connection;strokeWidth=1;fontSize=8;fontColor=#000000;" vertex="1" parent="85VBYpExMVY2cZqk5exd-1">
          <mxGeometry x="221.89999999999998" y="815.26" width="9" height="9" as="geometry"/>
        </mxCell>
        <mxCell id="85VBYpExMVY2cZqk5exd-639" value="" style="verticalLabelPosition=bottom;align=center;dashed=0;html=1;verticalAlign=top;shape=mxgraph.pid.piping.t-type_strainer;strokeWidth=1;fontSize=8;fontColor=#000000;" vertex="1" parent="85VBYpExMVY2cZqk5exd-1">
          <mxGeometry x="282.25" y="814.76" width="9" height="10" as="geometry"/>
        </mxCell>
      </root>
    </mxGraphModel>
  </diagram>
</mxfile>
